0
SECTION
2
HEADER
9
$INSUNITS
70
4
9
$ACADVER
1
AC1014
9
$HANDSEED
5
FFFF
0
ENDSEC
0
SECTION
2
TABLES
0
TABLE
2
VPORT
5
8
100
AcDbSymbolTable
0
ENDTAB
0
TABLE
2
LTYPE
5
5
100
AcDbSymbolTable
0
LTYPE
5
14
100
AcDbSymbolTableRecord
100
AcDbLinetypeTableRecord
2
BYBLOCK
70
0
0
LTYPE
5
15
100
AcDbSymbolTableRecord
100
AcDbLinetypeTableRecord
2
BYLAYER
70
0
0
ENDTAB
0
TABLE
2
LAYER
5
2
100
AcDbSymbolTable
70
2
0
LAYER
5
50
100
AcDbSymbolTableRecord
100
AcDbLayerTableRecord
2
0
70
0
6
CONTINUOUS
0
ENDTAB
0
TABLE
2
STYLE
5
3
100
AcDbSymbolTable
70
1
0
STYLE
5
11
100
AcDbSymbolTableRecord
100
AcDbTextStyleTableRecord
2
STANDARD
70
0
0
ENDTAB
0
TABLE
2
VIEW
5
6
100
AcDbSymbolTable
70
0
0
ENDTAB
0
TABLE
2
UCS
5
7
100
AcDbSymbolTable
70
0
0
ENDTAB
0
TABLE
2
APPID
5
9
100
AcDbSymbolTable
70
2
0
APPID
5
12
100
AcDbSymbolTableRecord
100
AcDbRegAppTableRecord
2
ACAD
70
0
0
ENDTAB
0
TABLE
2
DIMSTYLE
5
A
100
AcDbSymbolTable
70
1
0
ENDTAB
0
TABLE
2
BLOCK_RECORD
5
1
100
AcDbSymbolTable
70
1
0
BLOCK_RECORD
5
1F
100
AcDbSymbolTableRecord
100
AcDbBlockTableRecord
2
*MODEL_SPACE
0
BLOCK_RECORD
5
1B
100
AcDbSymbolTableRecord
100
AcDbBlockTableRecord
2
*PAPER_SPACE
0
ENDTAB
0
ENDSEC
0
SECTION
2
BLOCKS
0
BLOCK
5
20
100
AcDbEntity
100
AcDbBlockBegin
2
*MODEL_SPACE
0
ENDBLK
5
21
100
AcDbEntity
100
AcDbBlockEnd
0
BLOCK
5
1C
100
AcDbEntity
100
AcDbBlockBegin
2
*PAPER_SPACE
0
ENDBLK
5
1D
100
AcDbEntity
100
AcDbBlockEnd
0
ENDSEC
0
SECTION
2
ENTITIES
0
LWPOLYLINE
5
100
100
AcDbEntity
8
0
100
AcDbPolyline
90
6
70
1
43
0.0
10
9.2000000000000011
20
51.52683849253809
10
6.3999999999999986
20
53.143419246269048
10
6.3999999999999968
20
56.376580753730956
10
9.1999999999999993
20
57.993161507461906
10
12.000000000000002
20
56.376580753730956
10
12.000000000000002
20
53.143419246269048
0
LINE
5
101
100
AcDbEntity
8
0
100
AcDbLine
10
169.99999999999997
20
70
30
0
11
118.00000175833702
21
70
31
4.7683716530855236e-07
0
LINE
5
102
100
AcDbEntity
8
0
100
AcDbLine
10
118.00000175833702
20
-2.9197854893600958e-23
30
4.7683715642676816e-07
11
169.99999999999997
21
0
31
0
0
LWPOLYLINE
5
103
100
AcDbEntity
8
0
100
AcDbPolyline
90
6
70
1
43
0.0
10
50.763419246269038
20
6.7599999999999909
10
53.996580753730953
20
6.7599999999999927
10
55.613161507461903
20
3.9599999999999898
10
53.996580753730953
20
1.1599999999999866
10
50.763419246269038
20
1.1599999999999866
10
49.146838492538087
20
3.9599999999999893
0
LWPOLYLINE
5
104
100
AcDbEntity
8
0
100
AcDbPolyline
90
6
70
1
43
0.0
10
60.260000000000005
20
54.413419246269044
10
57.460000000000008
20
52.796838492538086
10
54.660000000000004
20
54.413419246269044
10
54.660000000000004
20
57.646580753730952
10
57.460000000000008
20
59.263161507461902
10
60.260000000000005
20
57.646580753730952
0
CIRCLE
5
105
100
AcDbEntity
8
0
100
AcDbCircle
10
130.99999999999989
20
34.500000432133724
30
0
40
1.5000000000000093
0
CIRCLE
5
106
100
AcDbEntity
8
0
100
AcDbCircle
10
85.640725589576832
20
35.000000521540642
30
4.4408920985006262e-15
40
1.4999999999999973
0
CIRCLE
5
107
100
AcDbEntity
8
0
100
AcDbCircle
10
72.140725589576832
20
35.000000521540642
30
4.4408920985006262e-15
40
1.4999999999999989
0
CIRCLE
5
108
100
AcDbEntity
8
0
100
AcDbCircle
10
52.379999999999995
20
3.9599999999999902
30
0
40
1.5000000000000002
0
CIRCLE
5
109
100
AcDbEntity
8
0
100
AcDbCircle
10
120.99999999999964
20
45.50000070035442
30
0
40
1.5000000000000022
0
CIRCLE
5
110
100
AcDbEntity
8
0
100
AcDbCircle
10
57.460000000000008
20
56.030000000000001
30
0
40
1.5000000000000009
0
LWPOLYLINE
5
111
100
AcDbEntity
8
0
100
AcDbPolyline
90
6
70
1
43
0.0
10
21.20683849253809
20
3.9599999999999929
10
22.823419246269047
20
6.7599999999999909
10
26.056580753730948
20
6.7599999999999882
10
27.673161507461899
20
3.9599999999999875
10
26.056580753730945
20
1.1599999999999899
10
22.82341924626904
20
1.1599999999999926
0
CIRCLE
5
112
100
AcDbEntity
8
0
100
AcDbCircle
10
146.5
20
35
30
4.4408920985006262e-15
40
7.8750000000000009
0
CIRCLE
5
113
100
AcDbEntity
8
0
100
AcDbCircle
10
24.439999999999994
20
3.9599999999999902
30
0
40
1.5000000000000002
0
CIRCLE
5
114
100
AcDbEntity
8
0
100
AcDbCircle
10
11.499999970197546
20
23.504474973077265
30
3.3306690738754696e-15
40
1.5000000000000002
0
CIRCLE
5
115
100
AcDbEntity
8
0
100
AcDbCircle
10
9.1999999999999993
20
54.759999999999998
30
0
40
1.5
0
CIRCLE
5
116
100
AcDbEntity
8
0
100
AcDbCircle
10
11.499999970197543
20
46.504474973077293
30
5.5511151231257827e-15
40
1.5000000000000002
0
SPLINE
5
117
100
AcDbEntity
8
0
100
AcDbSpline
70
1064
71
5
72
51
73
45
74
0
42
0.000000001
43
0.0000000001
44
0.0000000001
40
0
40
0
40
0
40
0
40
0
40
0
40
0.025000000000000001
40
0.050000000000000003
40
0.075000000000000011
40
0.10000000000000001
40
0.125
40
0.14999999999999999
40
0.17499999999999999
40
0.19999999999999998
40
0.22499999999999998
40
0.24999999999999997
40
0.27499999999999997
40
0.29999999999999999
40
0.32500000000000001
40
0.35000000000000003
40
0.37500000000000006
40
0.40000000000000008
40
0.4250000000000001
40
0.45000000000000012
40
0.47500000000000014
40
0.50000000000000011
40
0.52500000000000013
40
0.55000000000000016
40
0.57500000000000018
40
0.6000000000000002
40
0.62500000000000022
40
0.65000000000000024
40
0.67500000000000027
40
0.70000000000000029
40
0.72500000000000031
40
0.75000000000000033
40
0.77500000000000036
40
0.80000000000000038
40
0.8250000000000004
40
0.85000000000000042
40
0.87500000000000044
40
0.90000000000000047
40
0.92500000000000049
40
0.95000000000000051
40
0.97500000000000053
40
1
40
1
40
1
40
1
40
1
40
1
10
0
20
69.999999999999986
30
2.4424906541753444e-14
10
-0.55476439924296683
20
70.5648608533985
30
2.4493249097552471e-14
10
-1.6104321602202278
20
71.714175798251333
30
2.4621159787598358e-14
10
-3.0323517696383142
20
73.496929331752142
30
2.4786706098597917e-14
10
-4.6047422069634285
20
75.991603829783514
30
2.4962611170501523e-14
10
-6.0268612463027074
20
79.302776630232231
30
2.5151279027235892e-14
10
-6.8961515869111869
20
82.795473830673743
30
2.5360273201197838e-14
10
-7.196491394895439
20
86.446534704493075
30
2.5634908946363732e-14
10
-6.9025563907474332
20
90.215539626261361
30
2.599628561609539e-14
10
-5.981076570818086
20
94.044374870354446
30
2.643544987619151e-14
10
-4.3978754520034311
20
97.864273133251942
30
2.6925871259769773e-14
10
-2.1235697812675642
20
101.60118126326437
30
2.7431758822600668e-14
10
0.86013625661220894
20
105.18145434485302
30
2.7917441412676966e-14
10
4.5543131320667189
20
108.53817088968788
30
2.8357620414630073e-14
10
8.9365257736779764
20
111.61469543458574
30
2.8742851981887157e-14
10
13.954680533184099
20
114.36187473278545
30
2.9073749262599416e-14
10
19.520594574337043
20
116.73657768917658
30
2.9357552386490321e-14
10
25.503688686108212
20
118.69978690147917
30
2.9603827337840935e-14
10
31.723947941986779
20
120.21483720707317
30
2.9820466988559596e-14
10
37.946036761595423
20
121.24584066897683
30
3.0009770225028348e-14
10
43.870093142426896
20
121.75556820299255
30
3.0163975799706403e-14
10
49.131247185394955
20
121.70506322010684
30
3.0262452078106515e-14
10
53.35554665146806
20
121.06419977305691
30
3.0279776760417907e-14
10
56.210084345336995
20
119.82120919116477
30
3.0192668317285518e-14
10
57.454720551168236
20
117.99247699309862
30
2.9987231709696644e-14
10
56.995450964719161
20
115.63291867030108
30
2.9666421471016157e-14
10
54.932325070263879
20
112.84474296580684
30
2.9256583625716654e-14
10
51.509413523760813
20
109.7568972649651
30
2.8797030893413197e-14
10
47.071375098514693
20
106.50676844813634
30
2.8330917306189055e-14
10
42.017154901479984
20
103.22014718335494
30
2.7895084761441136e-14
10
36.75741673946478
20
99.994118725248853
30
2.7511628830625162e-14
10
31.665152912074888
20
96.873072473757631
30
2.7175413237055116e-14
10
27.054535077610993
20
93.853807866952906
30
2.685882432064192e-14
10
23.175990953876653
20
90.908398399507902
30
2.6527319035812002e-14
10
20.206832339477785
20
88.00096251885337
30
2.6150894707934749e-14
10
18.241728299456256
20
85.108150815894959
30
2.5718911063701721e-14
10
17.286661788454666
20
82.235145232276366
30
2.5249688423909288e-14
10
17.241359623708899
20
79.441010080477014
30
2.4812106780125883e-14
10
17.93032899309511
20
76.826332902275894
30
2.449840852140113e-14
10
19.16119180632883
20
74.499405046090899
30
2.4371874508448329e-14
10
20.779344071429282
20
72.546213588730083
30
2.4413854074565882e-14
10
22.324321498337646
20
71.31449803074409
30
2.4478077461515679e-14
10
23.612009060450838
20
70.582695897525866
30
2.447892135391726e-14
10
24.527785960543529
20
70.180030142244163
30
2.4448132673099068e-14
10
25.00000037252903
20
69.999999999999986
30
2.4424906541753444e-14
0
SPLINE
5
118
100
AcDbEntity
8
0
100
AcDbSpline
70
1064
71
5
72
31
73
25
74
0
42
0.000000001
43
0.0000000001
44
0.0000000001
40
0
40
0
40
0
40
0
40
0
40
0
40
0.050000000000000003
40
0.10000000000000001
40
0.15000000000000002
40
0.20000000000000001
40
0.25
40
0.29999999999999999
40
0.34999999999999998
40
0.39999999999999997
40
0.44999999999999996
40
0.49999999999999994
40
0.54999999999999993
40
0.59999999999999998
40
0.65000000000000002
40
0.70000000000000007
40
0.75000000000000011
40
0.80000000000000016
40
0.8500000000000002
40
0.90000000000000024
40
0.95000000000000029
40
1
40
1
40
1
40
1
40
1
40
1
10
169.99999999999997
20
-4.7184478546569161e-15
30
1.5543122344752192e-14
10
170.509385571601
20
-0.53332699128156924
30
1.5543122344752192e-14
10
171.59560906614243
20
-1.5476108871450682
30
1.5522985719226887e-14
10
173.42730801342134
20
-2.9119272067375501
30
1.5432375828927799e-14
10
176.27589541394337
20
-4.4155081829332046
30
1.520822842858398e-14
10
180.49671699253079
20
-5.7605834752299998
30
1.4852929719955572e-14
10
185.30781486424942
20
-6.5587082163755737
30
1.4538915541336854e-14
10
190.55722413119997
20
-6.7952533533525656
30
1.4369808934643451e-14
10
195.97246261944761
20
-6.4553708437863557
30
1.4400210928640605e-14
10
201.14146158315637
20
-5.5275576865561051
30
1.4610074327346705e-14
10
205.60060175369819
20
-4.0134945721732551
30
1.4937508441248856e-14
10
208.91180181399233
20
-1.9384659983309203
30
1.5304490879256616e-14
10
210.73845773727061
20
0.6388523309762586
30
1.5642907225585893e-14
10
210.93875255918852
20
3.6118862282583053
30
1.5924869029248363e-14
10
209.60985422550891
20
6.8229485542736166
30
1.6177442091890062e-14
10
206.98018274805156
20
10.095885526681778
30
1.6448830881103078e-14
10
203.33827271509358
20
13.259433401879035
30
1.678622531432434e-14
10
198.93830056748402
20
16.178903652976345
30
1.7203901091018228e-14
10
193.95834061647091
20
18.767739601098587
30
1.7673578911405179e-14
10
188.5224498900709
20
20.973130599539999
30
1.8143064707749409e-14
10
182.70720450279441
20
22.768753760334857
30
1.8547604270890799e-14
10
177.78481729154737
20
23.870167908557399
30
1.8768641386670274e-14
10
173.94841243145993
20
24.507991706270307
30
1.8854672903905831e-14
10
171.32680512971933
20
24.849884345118411
30
1.8873791418627661e-14
10
169.99999999999997
20
24.999999999999996
30
1.8873791418627661e-14
0
SPLINE
5
119
100
AcDbEntity
8
0
100
AcDbSpline
70
1064
71
5
72
51
73
45
74
0
42
0.000000001
43
0.0000000001
44
0.0000000001
40
0
40
0
40
0
40
0
40
0
40
0
40
0.025000000000000001
40
0.050000000000000003
40
0.075000000000000011
40
0.10000000000000001
40
0.125
40
0.14999999999999999
40
0.17499999999999999
40
0.19999999999999998
40
0.22499999999999998
40
0.24999999999999997
40
0.27499999999999997
40
0.29999999999999999
40
0.32500000000000001
40
0.35000000000000003
40
0.37500000000000006
40
0.40000000000000008
40
0.4250000000000001
40
0.45000000000000012
40
0.47500000000000014
40
0.50000000000000011
40
0.52500000000000013
40
0.55000000000000016
40
0.57500000000000018
40
0.6000000000000002
40
0.62500000000000022
40
0.65000000000000024
40
0.67500000000000027
40
0.70000000000000029
40
0.72500000000000031
40
0.75000000000000033
40
0.77500000000000036
40
0.80000000000000038
40
0.8250000000000004
40
0.85000000000000042
40
0.87500000000000044
40
0.90000000000000047
40
0.92500000000000049
40
0.95000000000000051
40
0.97500000000000053
40
1
40
1
40
1
40
1
40
1
40
1
10
0
20
-4.7184478546569161e-15
30
1.5543122344752192e-14
10
-0.55476439924296661
20
-0.56486085339850678
30
1.5474779788953164e-14
10
-1.6104321602202378
20
-1.7141757982511232
30
1.5328373015623276e-14
10
-3.0323517696383675
20
-3.4969293317505556
30
1.507960094423943e-14
10
-4.6047422069635768
20
-5.9916038297807415
30
1.469592251803749e-14
10
-6.0268612463029223
20
-9.3027766302290367
30
1.4165024383460497e-14
10
-6.8961515869113246
20
-12.795473830672236
30
1.3624745174526984e-14
10
-7.1964913948953608
20
-16.44653470449412
30
1.3112103513915702e-14
10
-6.9025563907471144
20
-20.215539626264643
30
1.2644503837523091e-14
10
-5.981076570817649
20
-24.044374870358386
30
1.2215592023561274e-14
10
-4.3978754520031274
20
-27.864273133254862
30
1.1806975449340351e-14
10
-2.1235697812674985
20
-31.601181263265453
30
1.1396428991716667e-14
10
0.86013625661213178
20
-35.181454344852284
30
1.0966842352216237e-14
10
4.5543131320667252
20
-38.538170889686491
30
1.0516411081776355e-14
10
8.9365257736782873
20
-41.614695434584675
30
1.0063227666070082e-14
10
13.954680533184693
20
-44.361874732785331
30
9.6368810083608767e-15
10
19.520594574337757
20
-46.736577689177324
30
9.2727639778424991e-15
10
25.50368868610882
20
-48.699786901480131
30
9.0053902835388294e-15
10
31.723947941987095
20
-50.214837207073629
30
8.8619971872447421e-15
10
37.946036761595366
20
-51.245840668976768
30
8.8563183552604841e-15
10
43.870093142426512
20
-51.755568202991924
30
8.9814553270309057e-15
10
49.131247185394436
20
-51.705063220106069
30
9.2053142613085882e-15
10
53.355546651467591
20
-51.064199773056174
30
9.4829800864863781e-15
10
56.210084345336725
20
-49.821209191164272
30
9.7672632763293634e-15
10
57.454720551168272
20
-47.992476993098627
30
1.0019746431316503e-14
10
56.995450964719439
20
-45.632918670301869
30
1.0222055416104578e-14
10
54.93232507026427
20
-42.844742965808209
30
1.0385918197809575e-14
10
51.509413523761147
20
-39.756897264966433
30
1.054099276010533e-14
10
47.071375098514878
20
-36.506768448137258
30
1.0724331271533374e-14
10
42.017154901480048
20
-33.220147183355081
30
1.0968662470333072e-14
10
36.757416739464745
20
-29.994118725248583
30
1.1292557020309813e-14
10
31.665152912074909
20
-26.873072473757187
30
1.1686246356743646e-14
10
27.054535077611067
20
-23.853807866952437
30
1.2115886283959773e-14
10
23.175990953876759
20
-20.908398399507565
30
1.2539343284779274e-14
10
20.206832339477863
20
-18.000962518853015
30
1.2917647570341876e-14
10
18.241728299456273
20
-15.108150815894742
30
1.3229956779388657e-14
10
17.286661788454641
20
-12.235145232276663
30
1.3483084026103082e-14
10
17.24135962370886
20
-9.4410100804776658
30
1.3733455651036949e-14
10
17.930328993095085
20
-6.8263329022765662
30
1.4058604382054078e-14
10
19.161191806328826
20
-4.4994050460907982
30
1.4502962595679413e-14
10
20.779344071429293
20
-2.5462135887291604
30
1.5022422895287131e-14
10
22.324321498337643
20
-1.3144980307433576
30
1.536816324630708e-14
10
23.612009060450838
20
-0.58269589752564177
30
1.5511318753973337e-14
10
24.527785960543529
20
-0.18003014224417524
30
1.5543122344752192e-14
10
25.00000037252903
20
-4.7184478546569161e-15
30
1.5543122344752192e-14
0
SPLINE
5
120
100
AcDbEntity
8
0
100
AcDbSpline
70
1064
71
5
72
31
73
25
74
0
42
0.000000001
43
0.0000000001
44
0.0000000001
40
0
40
0
40
0
40
0
40
0
40
0
40
0.050000000000000003
40
0.10000000000000001
40
0.15000000000000002
40
0.20000000000000001
40
0.25
40
0.29999999999999999
40
0.34999999999999998
40
0.39999999999999997
40
0.44999999999999996
40
0.49999999999999994
40
0.54999999999999993
40
0.59999999999999998
40
0.65000000000000002
40
0.70000000000000007
40
0.75000000000000011
40
0.80000000000000016
40
0.8500000000000002
40
0.90000000000000024
40
0.95000000000000029
40
1
40
1
40
1
40
1
40
1
40
1
10
169.99999999999997
20
69.999999999999986
30
2.4424906541753444e-14
10
170.509385571601
20
70.533326991281555
30
2.4495910411719277e-14
10
171.59560906614243
20
71.547610887145396
30
2.4612516421965756e-14
10
173.42730801342134
20
72.911927206739946
30
2.471122615152611e-14
10
176.27589541394337
20
74.415508182937032
30
2.4708756581794333e-14
10
180.49671699253079
20
75.760583475234014
30
2.458171723228922e-14
10
185.30781486424942
20
76.558708216377468
30
2.4445770488518584e-14
10
190.55722413119997
20
76.795253353351981
30
2.4395760761353681e-14
10
195.97246261944761
20
76.455370843784308
30
2.4465430239380922e-14
10
201.14146158315637
20
75.527557686554104
30
2.4599703969155889e-14
10
205.60060175369819
20
74.013494572172064
30
2.4698942081695773e-14
10
208.91180181399233
20
71.93846599833067
30
2.4654923958958869e-14
10
210.73845773727061
20
69.36114766902395
30
2.4386910422277361e-14
10
210.93875255918852
20
66.388113771741757
30
2.3884753221588e-14
10
209.60985422550891
20
63.177051445726356
30
2.3228779923464962e-14
10
206.98018274805156
20
59.904114473318025
30
2.2537330635474146e-14
10
203.33827271509358
20
56.740566598121006
30
2.1931799127881698e-14
10
198.93830056748402
20
53.821096347024337
30
2.1487418147713257e-14
10
193.95834061647091
20
51.232260398902881
30
2.1216666636780164e-14
10
188.5224498900709
20
49.026869400462026
30
2.1093962968358973e-14
10
182.70720450279441
20
47.231246239666859
30
2.1069601840535764e-14
10
177.78481729154737
20
46.129832091443262
30
2.1083835585385273e-14
10
173.94841243145993
20
45.492008293729839
30
2.1092345812589105e-14
10
171.32680512971933
20
45.150115654881574
30
2.1094237467877974e-14
10
169.99999999999997
20
44.999999999999993
30
2.1094237467877974e-14
0
CIRCLE
5
121
100
AcDbEntity
8
0
100
AcDbCircle
10
-25.00000037252903
20
27.000000402331349
30
1.8873791418627661e-14
40
2.0000000298023224
0
CIRCLE
5
122
100
AcDbEntity
8
0
100
AcDbCircle
10
-25.00000037252903
20
42.999999597668641
30
2.1094237467877974e-14
40
2.0000000298023224
0
SPLINE
5
123
100
AcDbEntity
8
0
100
AcDbSpline
70
1064
71
5
72
41
73
35
74
0
42
0.000000001
43
0.0000000001
44
0.0000000001
40
0
40
0
40
0
40
0
40
0
40
0
40
0.033333333333333333
40
0.066666666666666666
40
0.10000000000000001
40
0.13333333333333333
40
0.16666666666666666
40
0.19999999999999998
40
0.23333333333333331
40
0.26666666666666666
40
0.29999999999999999
40
0.33333333333333331
40
0.36666666666666664
40
0.39999999999999997
40
0.43333333333333329
40
0.46666666666666662
40
0.49999999999999994
40
0.53333333333333333
40
0.56666666666666665
40
0.59999999999999998
40
0.6333333333333333
40
0.66666666666666663
40
0.69999999999999996
40
0.73333333333333328
40
0.76666666666666661
40
0.79999999999999993
40
0.83333333333333326
40
0.86666666666666659
40
0.89999999999999991
40
0.93333333333333324
40
0.96666666666666656
40
1
40
1
40
1
40
1
40
1
40
1
10
0
20
52.000000774860375
30
2.2204460492503131e-14
10
-0.44721915212625085
20
51.685895460564055
30
2.2193178871403098e-14
10
-1.3525961720883526
20
51.115317405501976
30
2.2173851895649965e-14
10
-2.7434910195192339
20
50.432329938111167
30
2.2154568624851592e-14
10
-4.6636805565987798
20
49.868222755396772
30
2.2148321109755302e-14
10
-7.1853501231800774
20
49.719573830210379
30
2.2170979602639985e-14
10
-9.8611513595645892
20
50.060603996824582
30
2.221808442026064e-14
10
-12.759690665961132
20
50.74703419286876
30
2.2276803974477266e-14
10
-15.981676407021471
20
51.551179034075567
30
2.2327034190699152e-14
10
-19.617749958250961
20
52.209062242232285
30
2.2345651122446028e-14
10
-23.713220046520732
20
52.456743994418382
30
2.2309811382158637e-14
10
-28.23190979422149
20
52.069558695563892
30
2.2200510606458895e-14
10
-33.014506769163063
20
50.903542256136696
30
2.2006352679726956e-14
10
-37.753987955696168
20
48.927149953141722
30
2.17264280365509e-14
10
-42.064695107337513
20
46.196667533482753
30
2.1368024143252222e-14
10
-45.538826900268752
20
42.839622955521975
30
2.0945072831784104e-14
10
-47.807604661842419
20
39.035825180059071
30
2.0476381842337439e-14
10
-48.600755420380736
20
35.000000141804421
30
1.9984014462158485e-14
10
-47.807604676178819
20
30.964175140874474
30
1.9491647080121018e-14
10
-45.53882692275883
20
27.160377469078053
30
1.9022956085512562e-14
10
-42.064695130812908
20
23.803333041272335
30
1.8600004766567964e-14
10
-37.753987973936354
20
21.072850791895988
30
1.8241600864791082e-14
10
-33.014506778733725
20
19.096458651353963
30
1.7961676213527353e-14
10
-28.231909794867605
20
17.930442342086174
30
1.7767518280316587e-14
10
-23.713220040759303
20
17.543257124793396
30
1.7658217500558475e-14
10
-19.617749949732833
20
17.79093890765456
30
1.7622377758746433e-14
10
-15.981676399176246
20
18.448822104430654
30
1.7640994691061536e-14
10
-12.759690661139771
20
19.252966907682087
30
1.7691224909172529e-14
10
-9.8611513586168531
20
19.939397057320484
30
1.7749944465696252e-14
10
-7.1853501254538363
20
20.280427186017178
30
1.7797049285199116e-14
10
-4.6636805604525806
20
20.131778242402639
30
1.781970777899612e-14
10
-2.7434910229572225
20
19.567671064644806
30
1.7813460263652354e-14
10
-1.3525961742005335
20
18.884683612820602
30
1.7794176992082113e-14
10
-0.44721915290522007
20
18.314105573388744
30
1.7774850015554662e-14
10
0
20
18.000000268220898
30
1.7763568394002505e-14
0
LINE
5
124
100
AcDbEntity
8
0
100
AcDbLine
10
0
20
70
30
0
11
0
21
52.000000774860375
31
2.2204460492503131e-14
0
LINE
5
125
100
AcDbEntity
8
0
100
AcDbLine
10
0
20
18.000000268220898
30
1.7763568394002505e-14
11
0
21
0
31
0
0
LINE
5
126
100
AcDbEntity
8
0
100
AcDbLine
10
0
20
69.999999999999986
30
2.4424906541753444e-14
11
0
21
52.000000774860375
31
2.2204460492503131e-14
0
LINE
5
127
100
AcDbEntity
8
0
100
AcDbLine
10
0
20
18.000000268220898
30
1.7763568394002505e-14
11
0
21
-4.7184478546569161e-15
31
1.5543122344752192e-14
0
LINE
5
128
100
AcDbEntity
8
0
100
AcDbLine
10
169.99999999999997
20
24.999999999999996
30
1.8873791418627661e-14
11
169.99999999999997
21
44.999999999999993
31
2.1094237467877974e-14
0
LWPOLYLINE
5
129
100
AcDbEntity
8
0
100
AcDbPolyline
90
6
70
1
43
0.0
10
120.99999999999964
20
42.266839192892519
10
118.19999999999965
20
43.883419946623476
10
118.19999999999965
20
47.116581454085377
10
120.99999999999964
20
48.733162207816321
10
123.79999999999964
20
47.116581454085363
10
123.79999999999964
20
43.883419946623469
0
LWPOLYLINE
5
130
100
AcDbEntity
8
0
100
AcDbPolyline
90
6
70
1
43
0.0
10
130.99999999999989
20
31.266838924671831
10
128.19999999999987
20
32.883419678402781
10
128.19999999999987
20
36.116581185864675
10
130.99999999999989
20
37.733161939595618
10
133.79999999999987
20
36.116581185864675
10
133.79999999999987
20
32.883419678402774
0
CIRCLE
5
131
100
AcDbEntity
8
0
100
AcDbCircle
10
9.4066461923733797
20
105.96225321410138
30
0
40
1.5000000000000016
0
CIRCLE
5
132
100
AcDbEntity
8
0
100
AcDbCircle
10
33.361128864277511
20
102.47187215733473
30
0
40
1.4999999999999982
0
LWPOLYLINE
5
133
100
AcDbEntity
8
0
100
AcDbPolyline
90
6
70
1
43
0.0
10
30.645515256092658
20
104.2265162991408
10
33.522888461590703
20
105.70098459978857
10
36.238502069775564
20
103.94634045798249
10
36.076742472462364
20
100.71722801552865
10
33.199369266964318
20
99.242759714880876
10
30.483755658779465
20
100.99740385668696
0
LWPOLYLINE
5
134
100
AcDbEntity
8
0
100
AcDbPolyline
90
6
70
1
43
0.0
10
6.3871385350952483
20
107.11806757677913
10
8.8978569638721545
20
109.15513073356473
10
11.917364621150293
20
107.99931637088702
10
12.426153849651504
20
104.80643885142364
10
9.9154354208746049
20
102.76937569463803
10
6.8959277635964806
20
103.92519005731575
0
CIRCLE
5
135
100
AcDbEntity
8
0
100
AcDbCircle
10
135.49999999999997
20
65.999999657273293
30
0
40
1.5000000000000098
0
CIRCLE
5
136
100
AcDbEntity
8
0
100
AcDbCircle
10
157.49999999999994
20
65.999999657273293
30
0
40
1.4999999999999916
0
CIRCLE
5
137
100
AcDbEntity
8
0
100
AcDbCircle
10
157.49999999999994
20
4.0000003427267083
30
0
40
1.5000000000000004
0
CIRCLE
5
138
100
AcDbEntity
8
0
100
AcDbCircle
10
135.49999999999997
20
4.0000003427267057
30
0
40
1.5000000000000033
0
LWPOLYLINE
5
139
100
AcDbEntity
8
0
100
AcDbPolyline
90
6
70
1
43
0.0
10
132.26683849253806
20
65.999999657273293
10
133.88341924626903
20
68.799999657273304
10
137.11658075373091
20
68.799999657273304
10
138.73316150746189
20
65.999999657273293
10
137.11658075373091
20
63.199999657273295
10
133.88341924626903
20
63.199999657273295
0
LWPOLYLINE
5
140
100
AcDbEntity
8
0
100
AcDbPolyline
90
6
70
1
43
0.0
10
154.26683849253803
20
65.999999657273293
10
155.883419246269
20
68.799999657273304
10
159.11658075373089
20
68.799999657273275
10
160.73316150746183
20
65.999999657273293
10
159.11658075373089
20
63.199999657273295
10
155.883419246269
20
63.199999657273295
0
LWPOLYLINE
5
141
100
AcDbEntity
8
0
100
AcDbPolyline
90
6
70
1
43
0.0
10
132.26683849253806
20
4.0000003427267048
10
133.88341924626903
20
6.8000003427267064
10
137.11658075373091
20
6.8000003427267082
10
138.73316150746189
20
4.0000003427267057
10
137.11658075373091
20
1.2000003427267025
10
133.88341924626903
20
1.2000003427267025
0
LWPOLYLINE
5
142
100
AcDbEntity
8
0
100
AcDbPolyline
90
6
70
1
43
0.0
10
154.26683849253803
20
4.0000003427267075
10
155.883419246269
20
6.8000003427267082
10
159.11658075373091
20
6.8000003427267259
10
160.73316150746189
20
4.0000003427267075
10
159.11658075373089
20
1.2000003427267047
10
155.883419246269
20
1.2000003427267047
0
SPLINE
5
143
100
AcDbEntity
8
0
100
AcDbSpline
70
1064
71
5
72
21
73
15
74
0
42
0.000000001
43
0.0000000001
44
0.0000000001
40
0
40
0
40
0
40
0
40
0
40
0
40
0.10000000000000001
40
0.20000000000000001
40
0.30000000000000004
40
0.40000000000000002
40
0.5
40
0.59999999999999998
40
0.69999999999999996
40
0.79999999999999993
40
0.89999999999999991
40
1
40
1
40
1
40
1
40
1
40
1
10
25.00000037252903
20
70
30
4.7683716530855236e-07
10
26.67811037633539
20
71.144160368657609
30
4.7683716541797938e-07
10
30.050519334046729
20
73.33064619105977
30
4.7683716562014211e-07
10
35.157699773193592
20
76.304869221996171
30
4.7683716587331719e-07
10
42.066004392419757
20
79.64944467865277
30
4.7683716611731953e-07
10
50.876833643768549
20
82.726523513067889
30
4.7683716629969462e-07
10
59.877722738583202
20
84.608050574569376
30
4.7683716639604991e-07
10
69.082528667208123
20
85.206859899561891
30
4.7683716643514133e-07
10
78.49572882870072
20
84.494786872609055
30
4.7683716642576171e-07
10
88.105844191264552
20
82.544039154997222
30
4.7683716634925176e-07
10
97.896607038753245
20
79.456947131276962
30
4.7683716617154753e-07
10
105.86119400945958
20
76.157087786887146
30
4.7683716591622269e-07
10
111.90404704613515
20
73.245559190285562
30
4.7683716564527749e-07
10
115.96295930879546
20
71.113667029760364
30
4.7683716542705915e-07
10
118.00000175833702
20
70
30
4.7683716530855236e-07
0
SPLINE
5
144
100
AcDbEntity
8
0
100
AcDbSpline
70
1064
71
5
72
21
73
15
74
0
42
0.000000001
43
0.0000000001
44
0.0000000001
40
0
40
0
40
0
40
0
40
0
40
0
40
0.10000000000000001
40
0.20000000000000001
40
0.30000000000000004
40
0.40000000000000002
40
0.5
40
0.59999999999999998
40
0.69999999999999996
40
0.79999999999999993
40
0.89999999999999991
40
1
40
1
40
1
40
1
40
1
40
1
10
25.00000037252903
20
-2.9197854893600958e-23
30
4.7683715642676816e-07
10
26.67811037633539
20
-1.1441603686576158
30
4.7683715620791412e-07
10
30.050519334046729
20
-3.3306461910599268
30
4.7683715580358543e-07
10
35.157699773193592
20
-6.3048692219969773
30
4.7683715529721966e-07
10
42.066004392419757
20
-9.6494446786540848
30
4.7683715480920141e-07
10
50.876833643768549
20
-12.726523513069168
30
4.7683715444445039e-07
10
59.877722738583202
20
-14.608050574570058
30
4.7683715425175579e-07
10
69.082528667208123
20
-15.20685989956174
30
4.7683715417359519e-07
10
78.49572882870072
20
-14.494786872608111
30
4.768371541923736e-07
10
88.105844191264552
20
-12.544039154995943
30
4.7683715434540016e-07
10
97.896607038753245
20
-9.4569471312759141
30
4.7683715470080221e-07
10
105.86119400945958
20
-6.1570877868866001
30
4.7683715521143936e-07
10
111.90404704613515
20
-3.2455591902854803
30
4.7683715575331953e-07
10
115.96295930879546
20
-1.113667029760371
30
4.7683715618975452e-07
10
118.00000175833702
20
-2.9197854893600958e-23
30
4.7683715642676816e-07
0
LWPOLYLINE
5
145
100
AcDbEntity
8
0
100
AcDbPolyline
90
6
70
1
43
0.0
10
6.3871385350952536
20
-37.118067576779126
10
8.8978569638721439
20
-39.155130733564732
10
11.917364621150277
20
-37.999316370887009
10
12.42615384965152
20
-34.806438851423636
10
9.9154354208745943
20
-32.769375694638029
10
6.8959277635964966
20
-33.925190057315753
0
CIRCLE
5
146
100
AcDbEntity
8
0
100
AcDbCircle
10
9.4066461923733868
20
-35.962253214101381
30
0
40
1.5000000000000016
0
LWPOLYLINE
5
147
100
AcDbEntity
8
0
100
AcDbPolyline
90
6
70
1
43
0.0
10
33.522888461590696
20
-35.700984599788569
10
36.238502069775564
20
-33.946340457982487
10
36.076742472462371
20
-30.717228015528644
10
33.199369266964318
20
-29.242759714880879
10
30.483755658779472
20
-30.997403856686958
10
30.645515256092661
20
-34.226516299140798
0
CIRCLE
5
148
100
AcDbEntity
8
0
100
AcDbCircle
10
33.361128864277504
20
-32.471872157334722
30
0
40
1.4999999999999982
0
CIRCLE
5
149
100
AcDbEntity
8
0
100
AcDbCircle
10
0
20
85.000001266598701
30
0
40
2
0
CIRCLE
5
150
100
AcDbEntity
8
0
100
AcDbCircle
10
0
20
-15.000001266598701
30
0
40
2
0
CIRCLE
5
151
100
AcDbEntity
8
0
100
AcDbCircle
10
185.00000275671482
20
60.000000894069672
30
0
40
2
0
CIRCLE
5
152
100
AcDbEntity
8
0
100
AcDbCircle
10
185.00000275671482
20
9.9999991059303284
30
0
40
2
0
ENDSEC
0
SECTION
2
OBJECTS
0
DICTIONARY
5
C
100
AcDbDictionary
3
ACAD_GROUP
350
D
3
ACAD_MLINESTYLE
350
17
0
DICTIONARY
5
D
100
AcDbDictionary
0
DICTIONARY
5
1A
330
C
100
AcDbDictionary
0
DICTIONARY
5
17
100
AcDbDictionary
0
ENDSEC
0
EOF
