0
SECTION
2
HEADER
9
$INSUNITS
70
4
9
$ACADVER
1
AC1014
9
$HANDSEED
5
FFFF
0
ENDSEC
0
SECTION
2
TABLES
0
TABLE
2
VPORT
5
8
100
AcDbSymbolTable
0
ENDTAB
0
TABLE
2
LTYPE
5
5
100
AcDbSymbolTable
0
LTYPE
5
14
100
AcDbSymbolTableRecord
100
AcDbLinetypeTableRecord
2
BYBLOCK
70
0
0
LTYPE
5
15
100
AcDbSymbolTableRecord
100
AcDbLinetypeTableRecord
2
BYLAYER
70
0
0
ENDTAB
0
TABLE
2
LAYER
5
2
100
AcDbSymbolTable
70
2
0
LAYER
5
50
100
AcDbSymbolTableRecord
100
AcDbLayerTableRecord
2
0
70
0
6
CONTINUOUS
0
ENDTAB
0
TABLE
2
STYLE
5
3
100
AcDbSymbolTable
70
1
0
STYLE
5
11
100
AcDbSymbolTableRecord
100
AcDbTextStyleTableRecord
2
STANDARD
70
0
0
ENDTAB
0
TABLE
2
VIEW
5
6
100
AcDbSymbolTable
70
0
0
ENDTAB
0
TABLE
2
UCS
5
7
100
AcDbSymbolTable
70
0
0
ENDTAB
0
TABLE
2
APPID
5
9
100
AcDbSymbolTable
70
2
0
APPID
5
12
100
AcDbSymbolTableRecord
100
AcDbRegAppTableRecord
2
ACAD
70
0
0
ENDTAB
0
TABLE
2
DIMSTYLE
5
A
100
AcDbSymbolTable
70
1
0
ENDTAB
0
TABLE
2
BLOCK_RECORD
5
1
100
AcDbSymbolTable
70
1
0
BLOCK_RECORD
5
1F
100
AcDbSymbolTableRecord
100
AcDbBlockTableRecord
2
*MODEL_SPACE
0
BLOCK_RECORD
5
1B
100
AcDbSymbolTableRecord
100
AcDbBlockTableRecord
2
*PAPER_SPACE
0
ENDTAB
0
ENDSEC
0
SECTION
2
BLOCKS
0
BLOCK
5
20
100
AcDbEntity
100
AcDbBlockBegin
2
*MODEL_SPACE
0
ENDBLK
5
21
100
AcDbEntity
100
AcDbBlockEnd
0
BLOCK
5
1C
100
AcDbEntity
100
AcDbBlockBegin
2
*PAPER_SPACE
0
ENDBLK
5
1D
100
AcDbEntity
100
AcDbBlockEnd
0
ENDSEC
0
SECTION
2
ENTITIES
0
CIRCLE
5
100
100
AcDbEntity
8
0
100
AcDbCircle
10
85.640725589576832
20
-35.000000521540642
30
0
40
1.4999999999999973
0
LWPOLYLINE
5
101
100
AcDbEntity
8
0
100
AcDbPolyline
90
6
70
1
43
0.0
10
82.840725589576834
20
-36.616581275271585
10
82.840725589576834
20
-33.383419767809691
10
85.640725589576832
20
-31.766839014078748
10
88.440725589576829
20
-33.383419767809698
10
88.440725589576829
20
-36.616581275271592
10
85.640725589576832
20
-38.233162029002536
0
LINE
5
102
100
AcDbEntity
8
0
100
AcDbLine
10
118.00000175833702
20
0
30
0
11
169.99999999999997
21
0
31
0
0
LWPOLYLINE
5
103
100
AcDbEntity
8
0
100
AcDbPolyline
90
6
70
1
43
0.0
10
11.499999970197543
20
-26.73763648053917
10
8.6999999701975455
20
-25.121055726808216
10
8.6999999701975472
20
-21.887894219346311
10
11.499999970197548
20
-20.271313465615361
10
14.299999970197545
20
-21.887894219346315
10
14.299999970197543
20
-25.121055726808219
0
CIRCLE
5
104
100
AcDbEntity
8
0
100
AcDbCircle
10
135.49999999999997
20
-4.0000003427267075
30
0
40
1.5000000000000013
0
CIRCLE
5
105
100
AcDbEntity
8
0
100
AcDbCircle
10
157.49999999999994
20
-4.0000003427267083
30
0
40
1.4999999999999987
0
CIRCLE
5
106
100
AcDbEntity
8
0
100
AcDbCircle
10
130.99999999999989
20
-34.500000432133724
30
0
40
1.4999999999999938
0
CIRCLE
5
107
100
AcDbEntity
8
0
100
AcDbCircle
10
146.5
20
-35
30
0
40
7.8750000000000009
0
LWPOLYLINE
5
108
100
AcDbEntity
8
0
100
AcDbPolyline
90
6
70
1
43
0.0
10
69.340725589576834
20
-33.383419767809684
10
72.140725589576832
20
-31.766839014078734
10
74.940725589576843
20
-33.383419767809684
10
74.940725589576843
20
-36.616581275271599
10
72.140725589576832
20
-38.23316202900255
10
69.340725589576834
20
-36.616581275271599
0
CIRCLE
5
109
100
AcDbEntity
8
0
100
AcDbCircle
10
11.499999970197543
20
-46.504474973077293
30
0
40
1.5000000000000002
0
CIRCLE
5
110
100
AcDbEntity
8
0
100
AcDbCircle
10
72.140725589576832
20
-35.000000521540642
30
0
40
1.4999999999999989
0
CIRCLE
5
111
100
AcDbEntity
8
0
100
AcDbCircle
10
52.379999999999995
20
-3.9599999999999902
30
4.849601324623507e-16
40
1.5000000000000002
0
CIRCLE
5
112
100
AcDbEntity
8
0
100
AcDbCircle
10
24.439999999999994
20
-3.9599999999999902
30
4.849601324623507e-16
40
1.5000000000000002
0
CIRCLE
5
113
100
AcDbEntity
8
0
100
AcDbCircle
10
57.460000000000008
20
-56.030000000000001
30
6.8616960156226197e-15
40
1.5000000000000009
0
CIRCLE
5
114
100
AcDbEntity
8
0
100
AcDbCircle
10
9.1999999999999993
20
-54.759999999999998
30
6.7061658721309064e-15
40
1.5
0
CIRCLE
5
115
100
AcDbEntity
8
0
100
AcDbCircle
10
157.49999999999994
20
-65.999999657273293
30
0
40
1.4999999999999987
0
LWPOLYLINE
5
116
100
AcDbEntity
8
0
100
AcDbPolyline
90
6
70
1
43
0.0
10
8.6999999701975401
20
-44.887894219346336
10
11.499999970197546
20
-43.271313465615378
10
14.299999970197547
20
-44.887894219346336
10
14.299999970197547
20
-48.121055726808244
10
11.499999970197546
20
-49.737636480539194
10
8.6999999701975419
20
-48.121055726808244
0
CIRCLE
5
117
100
AcDbEntity
8
0
100
AcDbCircle
10
135.49999999999997
20
-65.999999657273293
30
0
40
1.5000000000000013
0
CIRCLE
5
118
100
AcDbEntity
8
0
100
AcDbCircle
10
120.99999999999964
20
-45.50000070035442
30
0
40
1.5000000000000047
0
CIRCLE
5
119
100
AcDbEntity
8
0
100
AcDbCircle
10
11.499999970197546
20
-23.504474973077265
30
0
40
1.5000000000000002
0
CIRCLE
5
120
100
AcDbEntity
8
0
100
AcDbCircle
10
-25.00000037252903
20
-42.999999597668648
30
0
40
2.0000000298023224
0
SPLINE
5
121
100
AcDbEntity
8
0
100
AcDbSpline
70
1064
71
5
72
41
73
35
74
0
42
0.000000001
43
0.0000000001
44
0.0000000001
40
0
40
0
40
0
40
0
40
0
40
0
40
0.033333333333333333
40
0.066666666666666666
40
0.10000000000000001
40
0.13333333333333333
40
0.16666666666666666
40
0.19999999999999998
40
0.23333333333333331
40
0.26666666666666666
40
0.29999999999999999
40
0.33333333333333331
40
0.36666666666666664
40
0.39999999999999997
40
0.43333333333333329
40
0.46666666666666662
40
0.49999999999999994
40
0.53333333333333333
40
0.56666666666666665
40
0.59999999999999998
40
0.6333333333333333
40
0.66666666666666663
40
0.69999999999999996
40
0.73333333333333328
40
0.76666666666666661
40
0.79999999999999993
40
0.83333333333333326
40
0.86666666666666659
40
0.89999999999999991
40
0.93333333333333324
40
0.96666666666666656
40
1
40
1
40
1
40
1
40
1
40
1
10
0
20
-52.000000774860382
30
0
10
-0.44721915212626351
20
-51.685895460561881
30
0
10
-1.3525961720883872
20
-51.115317405496221
30
0
10
-2.7434910195192916
20
-50.432329938102512
30
0
10
-4.6636805565988508
20
-49.86822275538853
30
0
10
-7.185350123180112
20
-49.719573830206784
30
0
10
-9.861151359564575
20
-50.0606039968266
30
0
10
-12.759690665961061
20
-50.74703419287475
30
0
10
-15.981676407021325
20
-51.551179034082793
30
0
10
-19.617749958250783
20
-52.20906224223814
30
0
10
-23.713220046520547
20
-52.456743994421117
30
0
10
-28.231909794221476
20
-52.069558695563167
30
0
10
-33.014506769163489
20
-50.90354225613342
30
0
10
-37.753987955697248
20
-48.927149953137445
30
0
10
-42.064695107339141
20
-46.196667533478923
30
0
10
-45.538826900270521
20
-42.839622955519523
30
0
10
-47.807604661843676
20
-39.03582518005814
30
0
10
-48.600755420380835
20
-35.00000014180462
30
0
10
-47.807604676177355
20
-30.964175140875064
30
0
10
-45.538826922756009
20
-27.160377469078554
30
0
10
-42.064695130809547
20
-23.803333041272548
30
0
10
-37.753987973933427
20
-21.072850791895949
30
0
10
-33.014506778732063
20
-19.096458651353831
30
0
10
-28.231909794867477
20
-17.930442342086138
30
0
10
-23.713220040760351
20
-17.543257124793524
30
0
10
-19.617749949734435
20
-17.790938907654827
30
0
10
-15.981676399177756
20
-18.448822104430999
30
0
10
-12.759690661140739
20
-19.252966907682371
30
0
10
-9.8611513586170645
20
-19.93939705732058
30
0
10
-7.185350125453402
20
-20.280427186017008
30
0
10
-4.6636805604518266
20
-20.131778242402287
30
0
10
-2.7434910229565435
20
-19.567671064644454
30
0
10
-1.3525961742001149
20
-18.884683612820368
30
0
10
-0.44721915290506542
20
-18.314105573388659
30
0
10
0
20
-18.000000268220901
30
0
0
SPLINE
5
122
100
AcDbEntity
8
0
100
AcDbSpline
70
1064
71
5
72
51
73
45
74
0
42
0.000000001
43
0.0000000001
44
0.0000000001
40
0
40
0
40
0
40
0
40
0
40
0
40
0.025000000000000001
40
0.050000000000000003
40
0.075000000000000011
40
0.10000000000000001
40
0.125
40
0.14999999999999999
40
0.17499999999999999
40
0.19999999999999998
40
0.22499999999999998
40
0.24999999999999997
40
0.27499999999999997
40
0.29999999999999999
40
0.32500000000000001
40
0.35000000000000003
40
0.37500000000000006
40
0.40000000000000008
40
0.4250000000000001
40
0.45000000000000012
40
0.47500000000000014
40
0.50000000000000011
40
0.52500000000000013
40
0.55000000000000016
40
0.57500000000000018
40
0.6000000000000002
40
0.62500000000000022
40
0.65000000000000024
40
0.67500000000000027
40
0.70000000000000029
40
0.72500000000000031
40
0.75000000000000033
40
0.77500000000000036
40
0.80000000000000038
40
0.8250000000000004
40
0.85000000000000042
40
0.87500000000000044
40
0.90000000000000047
40
0.92500000000000049
40
0.95000000000000051
40
0.97500000000000053
40
1
40
1
40
1
40
1
40
1
40
1
10
0
20
0
30
0
10
-0.55476439924296672
20
0.56486085339850212
30
0
10
-1.6104321602202836
20
1.7141757982510928
30
0
10
-3.0323517696389226
20
3.4969293317504055
30
0
10
-4.6047422069647821
20
5.9916038297803667
30
0
10
-6.0268612463041755
20
9.3027766302285215
30
0
10
-6.8961515869119525
20
12.795473830671845
30
0
10
-7.1964913948949736
20
16.446534704494304
30
0
10
-6.9025563907456808
20
20.215539626265652
30
0
10
-5.9810765708154054
20
24.044374870360091
30
0
10
-4.3978754520008492
20
27.864273133256489
30
0
10
-2.1235697812661254
20
31.60118126326628
30
0
10
0.8601362566116173
20
35.181454344851907
30
0
10
4.5543131320637551
20
38.538170889684856
30
0
10
8.9365257736729724
20
41.614695434581783
30
0
10
13.95468053317815
20
44.361874732781708
30
0
10
19.520594574331433
20
46.736577689173785
30
0
10
25.503688686104194
20
48.699786901477388
30
0
10
31.723947941985067
20
50.214837207072293
30
0
10
37.946036761595884
20
51.245840668977095
30
0
10
43.870093142428686
20
51.755568202993359
30
0
10
49.131247185397093
20
51.705063220107959
30
0
10
53.355546651469759
20
51.064199773057851
30
0
10
56.210084345337876
20
49.821209191165224
30
0
10
57.45472055116813
20
47.992476993098549
30
0
10
56.995450964718238
20
45.632918670300775
30
0
10
54.932325070262507
20
42.844742965806482
30
0
10
51.509413523759484
20
39.756897264964756
30
0
10
47.071375098513798
20
36.506768448136164
30
0
10
42.017154901479763
20
33.220147183354818
30
0
10
36.757416739465228
20
29.994118725249056
30
0
10
31.665152912075897
20
26.87307247375815
30
0
10
27.054535077612183
20
23.853807866953506
30
0
10
23.17599095387768
20
20.908398399508439
30
0
10
20.206832339478392
20
18.000962518853509
30
0
10
18.241728299456376
20
15.108150815894819
30
0
10
17.286661788454424
20
12.235145232276469
30
0
10
17.241359623708597
20
9.4410100804774615
30
0
10
17.930328993094953
20
6.8263329022764738
30
0
10
19.161191806328869
20
4.499405046090831
30
0
10
20.779344071429456
20
2.5462135887292296
30
0
10
22.324321498337738
20
1.3144980307433847
30
0
10
23.612009060450848
20
0.58269589752564266
30
0
10
24.527785960543529
20
0.18003014224417052
30
0
10
25.00000037252903
20
0
30
0
0
SPLINE
5
123
100
AcDbEntity
8
0
100
AcDbSpline
70
1064
71
5
72
31
73
25
74
0
42
0.000000001
43
0.0000000001
44
0.0000000001
40
0
40
0
40
0
40
0
40
0
40
0
40
0.050000000000000003
40
0.10000000000000001
40
0.15000000000000002
40
0.20000000000000001
40
0.25
40
0.29999999999999999
40
0.34999999999999998
40
0.39999999999999997
40
0.44999999999999996
40
0.49999999999999994
40
0.54999999999999993
40
0.59999999999999998
40
0.65000000000000002
40
0.70000000000000007
40
0.75000000000000011
40
0.80000000000000016
40
0.8500000000000002
40
0.90000000000000024
40
0.95000000000000029
40
1
40
1
40
1
40
1
40
1
40
1
10
169.99999999999997
20
0
30
0
10
170.509385571601
20
0.53332699128156447
30
0
10
171.59560906614215
20
1.5476108871450276
30
0
10
173.4273080134181
20
2.9119272067373676
30
0
10
176.27589541393829
20
4.4155081829328582
30
0
10
180.49671699252588
20
5.7605834752295992
30
0
10
185.30781486424746
20
6.5587082163753578
30
0
10
190.5572241312008
20
6.7952533533526092
30
0
10
195.97246261944892
20
6.4553708437866311
30
0
10
201.1414615831564
20
5.5275576865564577
30
0
10
205.6006017536975
20
4.0134945721735447
30
0
10
208.91180181399159
20
1.938465998331051
30
0
10
210.73845773727089
20
-0.6388523309763201
30
0
10
210.93875255918971
20
-3.6118862282585154
30
0
10
209.60985422550993
20
-6.8229485542738377
30
0
10
206.98018274805204
20
-10.095885526681885
30
0
10
203.33827271509321
20
-13.259433401878965
30
0
10
198.93830056748345
20
-16.178903652976153
30
0
10
193.95834061647005
20
-18.767739601098338
30
0
10
188.52244989007028
20
-20.973130599539793
30
0
10
182.70720450279401
20
-22.768753760334725
30
0
10
177.78481729154731
20
-23.870167908557342
30
0
10
173.94841243145999
20
-24.507991706270317
30
0
10
171.32680512971933
20
-24.849884345118415
30
0
10
169.99999999999997
20
-25
30
0
0
SPLINE
5
124
100
AcDbEntity
8
0
100
AcDbSpline
70
1064
71
5
72
51
73
45
74
0
42
0.000000001
43
0.0000000001
44
0.0000000001
40
0
40
0
40
0
40
0
40
0
40
0
40
0.025000000000000001
40
0.050000000000000003
40
0.075000000000000011
40
0.10000000000000001
40
0.125
40
0.14999999999999999
40
0.17499999999999999
40
0.19999999999999998
40
0.22499999999999998
40
0.24999999999999997
40
0.27499999999999997
40
0.29999999999999999
40
0.32500000000000001
40
0.35000000000000003
40
0.37500000000000006
40
0.40000000000000008
40
0.4250000000000001
40
0.45000000000000012
40
0.47500000000000014
40
0.50000000000000011
40
0.52500000000000013
40
0.55000000000000016
40
0.57500000000000018
40
0.6000000000000002
40
0.62500000000000022
40
0.65000000000000024
40
0.67500000000000027
40
0.70000000000000029
40
0.72500000000000031
40
0.75000000000000033
40
0.77500000000000036
40
0.80000000000000038
40
0.8250000000000004
40
0.85000000000000042
40
0.87500000000000044
40
0.90000000000000047
40
0.92500000000000049
40
0.95000000000000051
40
0.97500000000000053
40
1
40
1
40
1
40
1
40
1
40
1
10
0
20
-70
30
0
10
-0.55476439924296672
20
-70.5648608533985
30
0
10
-1.6104321602202836
20
-71.714175798251091
30
0
10
-3.0323517696389226
20
-73.496929331750408
30
0
10
-4.6047422069647821
20
-75.99160382978036
30
0
10
-6.0268612463041755
20
-79.302776630228522
30
0
10
-6.8961515869119525
20
-82.795473830671838
30
0
10
-7.1964913948949736
20
-86.446534704494297
30
0
10
-6.9025563907456808
20
-90.215539626265667
30
0
10
-5.9810765708154054
20
-94.044374870360087
30
0
10
-4.3978754520008492
20
-97.864273133256489
30
0
10
-2.1235697812661254
20
-101.60118126326628
30
0
10
0.8601362566116173
20
-105.18145434485191
30
0
10
4.5543131320637551
20
-108.53817088968485
30
0
10
8.9365257736729724
20
-111.61469543458179
30
0
10
13.95468053317815
20
-114.3618747327817
30
0
10
19.520594574331433
20
-116.73657768917379
30
0
10
25.503688686104194
20
-118.6997869014774
30
0
10
31.723947941985067
20
-120.21483720707229
30
0
10
37.946036761595884
20
-121.2458406689771
30
0
10
43.870093142428686
20
-121.75556820299336
30
0
10
49.131247185397093
20
-121.70506322010796
30
0
10
53.355546651469759
20
-121.06419977305785
30
0
10
56.210084345337876
20
-119.82120919116522
30
0
10
57.45472055116813
20
-117.99247699309856
30
0
10
56.995450964718238
20
-115.63291867030077
30
0
10
54.932325070262507
20
-112.84474296580647
30
0
10
51.509413523759484
20
-109.75689726496476
30
0
10
47.071375098513798
20
-106.50676844813617
30
0
10
42.017154901479763
20
-103.22014718335481
30
0
10
36.757416739465228
20
-99.994118725249052
30
0
10
31.665152912075897
20
-96.873072473758143
30
0
10
27.054535077612183
20
-93.853807866953503
30
0
10
23.17599095387768
20
-90.908398399508442
30
0
10
20.206832339478392
20
-88.000962518853513
30
0
10
18.241728299456376
20
-85.108150815894817
30
0
10
17.286661788454424
20
-82.23514523227648
30
0
10
17.241359623708597
20
-79.441010080477469
30
0
10
17.930328993094953
20
-76.826332902276476
30
0
10
19.161191806328869
20
-74.499405046090828
30
0
10
20.779344071429456
20
-72.546213588729231
30
0
10
22.324321498337738
20
-71.31449803074338
30
0
10
23.612009060450848
20
-70.582695897525639
30
0
10
24.527785960543529
20
-70.180030142244178
30
0
10
25.00000037252903
20
-70
30
0
0
SPLINE
5
125
100
AcDbEntity
8
0
100
AcDbSpline
70
1064
71
5
72
31
73
25
74
0
42
0.000000001
43
0.0000000001
44
0.0000000001
40
0
40
0
40
0
40
0
40
0
40
0
40
0.050000000000000003
40
0.10000000000000001
40
0.15000000000000002
40
0.20000000000000001
40
0.25
40
0.29999999999999999
40
0.34999999999999998
40
0.39999999999999997
40
0.44999999999999996
40
0.49999999999999994
40
0.54999999999999993
40
0.59999999999999998
40
0.65000000000000002
40
0.70000000000000007
40
0.75000000000000011
40
0.80000000000000016
40
0.8500000000000002
40
0.90000000000000024
40
0.95000000000000029
40
1
40
1
40
1
40
1
40
1
40
1
10
169.99999999999997
20
-70
30
0
10
170.509385571601
20
-70.533326991281569
30
0
10
171.59560906614215
20
-71.547610887145026
30
0
10
173.4273080134181
20
-72.91192720673736
30
0
10
176.27589541393829
20
-74.415508182932854
30
0
10
180.49671699252588
20
-75.760583475229595
30
0
10
185.30781486424746
20
-76.558708216375365
30
0
10
190.5572241312008
20
-76.795253353352606
30
0
10
195.97246261944892
20
-76.455370843786625
30
0
10
201.1414615831564
20
-75.527557686556463
30
0
10
205.6006017536975
20
-74.013494572173542
30
0
10
208.91180181399159
20
-71.938465998331054
30
0
10
210.73845773727089
20
-69.36114766902368
30
0
10
210.93875255918971
20
-66.388113771741487
30
0
10
209.60985422550993
20
-63.177051445726164
30
0
10
206.98018274805204
20
-59.904114473318117
30
0
10
203.33827271509321
20
-56.740566598121035
30
0
10
198.93830056748345
20
-53.821096347023847
30
0
10
193.95834061647005
20
-51.232260398901666
30
0
10
188.52244989007028
20
-49.026869400460207
30
0
10
182.70720450279401
20
-47.231246239665275
30
0
10
177.78481729154731
20
-46.129832091442665
30
0
10
173.94841243145999
20
-45.492008293729683
30
0
10
171.32680512971933
20
-45.150115654881589
30
0
10
169.99999999999997
20
-45
30
0
0
CIRCLE
5
126
100
AcDbEntity
8
0
100
AcDbCircle
10
-25.00000037252903
20
-27.000000402331352
30
0
40
2.0000000298023224
0
LINE
5
127
100
AcDbEntity
8
0
100
AcDbLine
10
0
20
-70
30
0
11
0
21
-52.000000774860382
31
0
0
LINE
5
128
100
AcDbEntity
8
0
100
AcDbLine
10
0
20
-18.000000268220901
30
0
11
0
21
0
31
0
0
LINE
5
129
100
AcDbEntity
8
0
100
AcDbLine
10
0
20
-70
30
0
11
0
21
-52.000000774860382
31
0
0
LINE
5
130
100
AcDbEntity
8
0
100
AcDbLine
10
169.99999999999997
20
-25
30
0
11
169.99999999999997
21
-45
31
0
0
LINE
5
131
100
AcDbEntity
8
0
100
AcDbLine
10
169.99999999999997
20
-25
30
0
11
169.99999999999997
21
-45
31
0
0
CIRCLE
5
132
100
AcDbEntity
8
0
100
AcDbCircle
10
9.4066461923733797
20
-105.96225321410138
30
0
40
1.4999999999999993
0
CIRCLE
5
133
100
AcDbEntity
8
0
100
AcDbCircle
10
33.361128864277511
20
-102.47187215733473
30
0
40
1.4999999999999991
0
SPLINE
5
134
100
AcDbEntity
8
0
100
AcDbSpline
70
1064
71
5
72
21
73
15
74
0
42
0.000000001
43
0.0000000001
44
0.0000000001
40
0
40
0
40
0
40
0
40
0
40
0
40
0.10000000000000001
40
0.20000000000000001
40
0.30000000000000004
40
0.40000000000000002
40
0.5
40
0.59999999999999998
40
0.69999999999999996
40
0.79999999999999993
40
0.89999999999999991
40
1
40
1
40
1
40
1
40
1
40
1
10
25.00000037252903
20
0
30
0
10
26.67811037633539
20
1.1441603686576158
30
0
10
30.050519334046783
20
3.330646191059933
30
0
10
35.157699773194466
20
6.3048692219970359
30
0
10
42.066004392421725
20
9.6494446786541896
30
0
10
50.876833643770723
20
12.726523513069274
30
0
10
59.87772273858441
20
14.608050574570113
30
0
10
69.082528667207797
20
15.206859899561723
30
0
10
78.495728828699043
20
14.494786872608035
30
0
10
88.105844191262364
20
12.544039154995854
30
0
10
97.896607038751569
20
9.4569471312758502
30
0
10
105.86119400945884
20
6.1570877868865743
30
0
10
111.90404704613506
20
3.2455591902854772
30
0
10
115.96295930879546
20
1.113667029760371
30
0
10
118.00000175833702
20
0
30
0
0
SPLINE
5
135
100
AcDbEntity
8
0
100
AcDbSpline
70
1064
71
5
72
21
73
15
74
0
42
0.000000001
43
0.0000000001
44
0.0000000001
40
0
40
0
40
0
40
0
40
0
40
0
40
0.10000000000000001
40
0.20000000000000001
40
0.30000000000000004
40
0.40000000000000002
40
0.5
40
0.59999999999999998
40
0.69999999999999996
40
0.79999999999999993
40
0.89999999999999991
40
1
40
1
40
1
40
1
40
1
40
1
10
25.00000037252903
20
-70
30
0
10
26.67811037633539
20
-71.144160368657609
30
0
10
30.050519334046783
20
-73.330646191059941
30
0
10
35.157699773194466
20
-76.304869221997038
30
0
10
42.066004392421725
20
-79.649444678654191
30
0
10
50.876833643770723
20
-82.726523513069282
30
0
10
59.87772273858441
20
-84.608050574570115
30
0
10
69.082528667207797
20
-85.206859899561721
30
0
10
78.495728828699043
20
-84.494786872608046
30
0
10
88.105844191262364
20
-82.544039154995858
30
0
10
97.896607038751569
20
-79.456947131275854
30
0
10
105.86119400945884
20
-76.157087786886578
30
0
10
111.90404704613506
20
-73.245559190285476
30
0
10
115.96295930879546
20
-71.113667029760364
30
0
10
118.00000175833702
20
-70
30
0
0
LINE
5
136
100
AcDbEntity
8
0
100
AcDbLine
10
169.99999999999997
20
-70
30
0
11
118.00000175833702
21
-70
31
0
0
CIRCLE
5
137
100
AcDbEntity
8
0
100
AcDbCircle
10
9.4066461923733868
20
35.962253214101381
30
0
40
1.4999999999999993
0
CIRCLE
5
138
100
AcDbEntity
8
0
100
AcDbCircle
10
33.361128864277504
20
32.471872157334722
30
0
40
1.4999999999999991
0
CIRCLE
5
139
100
AcDbEntity
8
0
100
AcDbCircle
10
0
20
-85.000001266598701
30
0
40
2
0
CIRCLE
5
140
100
AcDbEntity
8
0
100
AcDbCircle
10
0
20
15.000001266598701
30
0
40
2
0
CIRCLE
5
141
100
AcDbEntity
8
0
100
AcDbCircle
10
185.00000275671482
20
-60.000000894069672
30
0
40
2
0
CIRCLE
5
142
100
AcDbEntity
8
0
100
AcDbCircle
10
185.00000275671482
20
-9.9999991059303284
30
0
40
2
0
ENDSEC
0
SECTION
2
OBJECTS
0
DICTIONARY
5
C
100
AcDbDictionary
3
ACAD_GROUP
350
D
3
ACAD_MLINESTYLE
350
17
0
DICTIONARY
5
D
100
AcDbDictionary
0
DICTIONARY
5
1A
330
C
100
AcDbDictionary
0
DICTIONARY
5
17
100
AcDbDictionary
0
ENDSEC
0
EOF
