0
SECTION
2
HEADER
9
$INSUNITS
70
4
9
$ACADVER
1
AC1014
9
$HANDSEED
5
FFFF
0
ENDSEC
0
SECTION
2
TABLES
0
TABLE
2
VPORT
5
8
100
AcDbSymbolTable
0
ENDTAB
0
TABLE
2
LTYPE
5
5
100
AcDbSymbolTable
0
LTYPE
5
14
100
AcDbSymbolTableRecord
100
AcDbLinetypeTableRecord
2
BYBLOCK
70
0
0
LTYPE
5
15
100
AcDbSymbolTableRecord
100
AcDbLinetypeTableRecord
2
BYLAYER
70
0
0
ENDTAB
0
TABLE
2
LAYER
5
2
100
AcDbSymbolTable
70
2
0
LAYER
5
50
100
AcDbSymbolTableRecord
100
AcDbLayerTableRecord
2
0
70
0
6
CONTINUOUS
0
ENDTAB
0
TABLE
2
STYLE
5
3
100
AcDbSymbolTable
70
1
0
STYLE
5
11
100
AcDbSymbolTableRecord
100
AcDbTextStyleTableRecord
2
STANDARD
70
0
0
ENDTAB
0
TABLE
2
VIEW
5
6
100
AcDbSymbolTable
70
0
0
ENDTAB
0
TABLE
2
UCS
5
7
100
AcDbSymbolTable
70
0
0
ENDTAB
0
TABLE
2
APPID
5
9
100
AcDbSymbolTable
70
2
0
APPID
5
12
100
AcDbSymbolTableRecord
100
AcDbRegAppTableRecord
2
ACAD
70
0
0
ENDTAB
0
TABLE
2
DIMSTYLE
5
A
100
AcDbSymbolTable
70
1
0
ENDTAB
0
TABLE
2
BLOCK_RECORD
5
1
100
AcDbSymbolTable
70
1
0
BLOCK_RECORD
5
1F
100
AcDbSymbolTableRecord
100
AcDbBlockTableRecord
2
*MODEL_SPACE
0
BLOCK_RECORD
5
1B
100
AcDbSymbolTableRecord
100
AcDbBlockTableRecord
2
*PAPER_SPACE
0
ENDTAB
0
ENDSEC
0
SECTION
2
BLOCKS
0
BLOCK
5
20
100
AcDbEntity
100
AcDbBlockBegin
2
*MODEL_SPACE
0
ENDBLK
5
21
100
AcDbEntity
100
AcDbBlockEnd
0
BLOCK
5
1C
100
AcDbEntity
100
AcDbBlockBegin
2
*PAPER_SPACE
0
ENDBLK
5
1D
100
AcDbEntity
100
AcDbBlockEnd
0
ENDSEC
0
SECTION
2
ENTITIES
0
LINE
5
100
100
AcDbEntity
8
0
100
AcDbLine
10
0
20
210
30
0
11
0
21
192.00000077486038
31
2.2204460492503131e-14
0
SPLINE
5
101
100
AcDbEntity
8
0
100
AcDbSpline
70
1064
71
5
72
31
73
25
74
0
42
0.000000001
43
0.0000000001
44
0.0000000001
40
0
40
0
40
0
40
0
40
0
40
0
40
0.050000000000000003
40
0.10000000000000001
40
0.15000000000000002
40
0.20000000000000001
40
0.25
40
0.29999999999999999
40
0.34999999999999998
40
0.39999999999999997
40
0.44999999999999996
40
0.49999999999999994
40
0.54999999999999993
40
0.59999999999999998
40
0.65000000000000002
40
0.70000000000000007
40
0.75000000000000011
40
0.80000000000000016
40
0.8500000000000002
40
0.90000000000000024
40
0.95000000000000029
40
1
40
1
40
1
40
1
40
1
40
1
10
169.99999999999997
20
210
30
2.4424906541753444e-14
10
170.509385571601
20
210.53332699128157
30
2.4495910411719277e-14
10
171.59560906614243
20
211.54761088714559
30
2.4612516421965756e-14
10
173.42730801342134
20
212.91192720674246
30
2.471122615152611e-14
10
176.27589541394337
20
214.4155081829407
30
2.4708756581794333e-14
10
180.49671699253079
20
215.76058347523767
30
2.458171723228922e-14
10
185.30781486424942
20
216.55870821637905
30
2.4445770488518584e-14
10
190.55722413119997
20
216.79525335335143
30
2.4395760761353681e-14
10
195.97246261944761
20
216.45537084378304
30
2.4465430239380922e-14
10
201.14146158315637
20
215.52755768655331
30
2.4599703969155889e-14
10
205.60060175369819
20
214.01349457217202
30
2.4698942081695773e-14
10
208.91180181399233
20
211.93846599833103
30
2.4654923958958869e-14
10
210.73845773727061
20
209.36114766902386
30
2.4386910422277361e-14
10
210.93875255918852
20
206.38811377174105
30
2.3884753221588e-14
10
209.60985422550891
20
203.17705144572551
30
2.3228779923464962e-14
10
206.98018274805156
20
199.90411447331721
30
2.2537330635474146e-14
10
203.33827271509358
20
196.74056659812149
30
2.1931799127881698e-14
10
198.93830056748402
20
193.82109634702684
30
2.1487418147713257e-14
10
193.95834061647091
20
191.23226039890744
30
2.1216666636780164e-14
10
188.5224498900709
20
189.02686940046775
30
2.1093962968358973e-14
10
182.70720450279441
20
187.23124623967146
30
2.1069601840535764e-14
10
177.78481729154737
20
186.12983209144522
30
2.1083835585385273e-14
10
173.94841243145993
20
185.49200829373024
30
2.1092345812589105e-14
10
171.32680512971933
20
185.15011565488157
30
2.1094237467877974e-14
10
169.99999999999997
20
185
30
2.1094237467877974e-14
0
LINE
5
102
100
AcDbEntity
8
0
100
AcDbLine
10
169.99999999999997
20
165
30
1.8873791418627661e-14
11
169.99999999999997
21
185
31
2.1094237467877974e-14
0
SPLINE
5
103
100
AcDbEntity
8
0
100
AcDbSpline
70
1064
71
5
72
41
73
35
74
0
42
0.000000001
43
0.0000000001
44
0.0000000001
40
0
40
0
40
0
40
0
40
0
40
0
40
0.033333333333333333
40
0.066666666666666666
40
0.10000000000000001
40
0.13333333333333333
40
0.16666666666666666
40
0.19999999999999998
40
0.23333333333333331
40
0.26666666666666666
40
0.29999999999999999
40
0.33333333333333331
40
0.36666666666666664
40
0.39999999999999997
40
0.43333333333333329
40
0.46666666666666662
40
0.49999999999999994
40
0.53333333333333333
40
0.56666666666666665
40
0.59999999999999998
40
0.6333333333333333
40
0.66666666666666663
40
0.69999999999999996
40
0.73333333333333328
40
0.76666666666666661
40
0.79999999999999993
40
0.83333333333333326
40
0.86666666666666659
40
0.89999999999999991
40
0.93333333333333324
40
0.96666666666666656
40
1
40
1
40
1
40
1
40
1
40
1
10
0
20
192.00000077486038
30
2.2204460492503131e-14
10
-0.44721915212626351
20
191.68589546055478
30
2.2193178871403057e-14
10
-1.3525961720883872
20
191.11531740547741
30
2.2173851895649867e-14
10
-2.7434910195192916
20
190.43232993807385
30
2.2154568624851444e-14
10
-4.6636805565988508
20
189.86822275536156
30
2.214832110975515e-14
10
-7.185350123180112
20
189.71957383019557
30
2.2170979602639887e-14
10
-9.861151359564575
20
190.06060399683315
30
2.2218084420260674e-14
10
-12.759690665961061
20
190.74703419289239
30
2.2276803974477455e-14
10
-15.981676407021325
20
191.55117903410269
30
2.2327034190699385e-14
10
-19.617749958250783
20
192.20906224225268
30
2.2345651122446252e-14
10
-23.713220046520547
20
192.45674399442717
30
2.2309811382158728e-14
10
-28.231909794221476
20
192.06955869556114
30
2.2200510606458864e-14
10
-33.014506769163489
20
190.90354225612697
30
2.2006352679726889e-14
10
-37.753987955697248
20
188.9271499531304
30
2.1726428036550909e-14
10
-42.064695107339141
20
186.19666753347448
30
2.1368024143252379e-14
10
-45.538826900270521
20
182.83962295551859
30
2.0945072831784379e-14
10
-47.807604661843676
20
179.03582518005942
30
2.0476381842337685e-14
10
-48.600755420380835
20
175.00000014180543
30
1.9984014462158535e-14
10
-47.807604676177355
20
170.96417514087204
30
1.9491647080120671e-14
10
-45.538826922756009
20
167.16037746907017
30
1.9022956085511833e-14
10
-42.064695130809547
20
163.80333304125958
30
1.8600004766567046e-14
10
-37.753987973933427
20
161.0728507918819
30
1.8241600864790227e-14
10
-33.014506778732063
20
159.09645865134331
30
1.7961676213526826e-14
10
-28.231909794867477
20
157.93044234208378
30
1.7767518280316521e-14
10
-23.713220040760351
20
157.54325712480215
30
1.7658217500558838e-14
10
-19.617749949734435
20
157.79093890767382
30
1.7622377758747014e-14
10
-15.981676399177756
20
158.44882210445519
30
1.7640994691062142e-14
10
-12.759690661140739
20
159.25296690770313
30
1.7691224909172952e-14
10
-9.8611513586170645
20
159.93939705732805
30
1.7749944465696356e-14
10
-7.185350125453402
20
160.28042718600415
30
1.7797049285198892e-14
10
-4.6636805604518266
20
160.13177824237135
30
1.7819707778995713e-14
10
-2.7434910229565435
20
159.56767106461126
30
1.7813460263651978e-14
10
-1.3525961742001149
20
158.88468361279834
30
1.7794176992081873e-14
10
-0.44721915290506542
20
158.31410557338029
30
1.7774850015554567e-14
10
0
20
158.0000002682209
30
1.7763568394002505e-14
0
SPLINE
5
104
100
AcDbEntity
8
0
100
AcDbSpline
70
1064
71
5
72
51
73
45
74
0
42
0.000000001
43
0.0000000001
44
0.0000000001
40
0
40
0
40
0
40
0
40
0
40
0
40
0.025000000000000001
40
0.050000000000000003
40
0.075000000000000011
40
0.10000000000000001
40
0.125
40
0.14999999999999999
40
0.17499999999999999
40
0.19999999999999998
40
0.22499999999999998
40
0.24999999999999997
40
0.27499999999999997
40
0.29999999999999999
40
0.32500000000000001
40
0.35000000000000003
40
0.37500000000000006
40
0.40000000000000008
40
0.4250000000000001
40
0.45000000000000012
40
0.47500000000000014
40
0.50000000000000011
40
0.52500000000000013
40
0.55000000000000016
40
0.57500000000000018
40
0.6000000000000002
40
0.62500000000000022
40
0.65000000000000024
40
0.67500000000000027
40
0.70000000000000029
40
0.72500000000000031
40
0.75000000000000033
40
0.77500000000000036
40
0.80000000000000038
40
0.8250000000000004
40
0.85000000000000042
40
0.87500000000000044
40
0.90000000000000047
40
0.92500000000000049
40
0.95000000000000051
40
0.97500000000000053
40
1
40
1
40
1
40
1
40
1
40
1
10
0
20
140
30
1.5543122344752192e-14
10
-0.55476439924296661
20
139.4351391466015
30
1.5474779788953164e-14
10
-1.6104321602202378
20
138.28582420174888
30
1.5328373015623276e-14
10
-3.0323517696383675
20
136.50307066825047
30
1.507960094423943e-14
10
-4.6047422069635768
20
134.00839617022046
30
1.469592251803749e-14
10
-6.0268612463029223
20
130.69722336977225
30
1.4165024383460497e-14
10
-6.8961515869113246
20
127.2045261693283
30
1.3624745174526984e-14
10
-7.1964913948953608
20
123.55346529550545
30
1.3112103513915702e-14
10
-6.9025563907471144
20
119.78446037373428
30
1.2644503837523091e-14
10
-5.981076570817649
20
115.95562512964011
30
1.2215592023561274e-14
10
-4.3978754520031274
20
112.13572686674384
30
1.1806975449340351e-14
10
-2.1235697812674985
20
108.3988187367338
30
1.1396428991716667e-14
10
0.86013625661213178
20
104.81854565514806
30
1.0966842352216237e-14
10
4.5543131320667252
20
101.46182911031495
30
1.0516411081776355e-14
10
8.9365257736782873
20
98.38530456541811
30
1.0063227666070082e-14
10
13.954680533184693
20
95.638125267218044
30
9.6368810083608767e-15
10
19.520594574337757
20
93.263422310825703
30
9.2727639778424991e-15
10
25.50368868610882
20
91.300213098522264
30
9.0053902835388294e-15
10
31.723947941987095
20
89.785162792927736
30
8.8619971872447421e-15
10
37.946036761595366
20
88.754159331022919
30
8.8563183552604841e-15
10
43.870093142426512
20
88.244431797006499
30
8.9814553270309057e-15
10
49.131247185394436
20
88.294936779891515
30
9.2053142613085882e-15
10
53.355546651467591
20
88.93580022694141
30
9.4829800864863781e-15
10
56.210084345336725
20
90.178790808834236
30
9.7672632763293634e-15
10
57.454720551168272
20
92.007523006901621
30
1.0019746431316503e-14
10
56.995450964719439
20
94.367081329699545
30
1.0222055416104578e-14
10
54.93232507026427
20
97.155257034194051
30
1.0385918197809575e-14
10
51.509413523761147
20
100.24310273503585
30
1.054099276010533e-14
10
47.071375098514878
20
103.49323155186426
30
1.0724331271533374e-14
10
42.017154901480048
20
106.77985281664535
30
1.0968662470333072e-14
10
36.757416739464745
20
110.00588127475069
30
1.1292557020309813e-14
10
31.665152912074909
20
113.12692752624127
30
1.1686246356743646e-14
10
27.054535077611067
20
116.14619213304584
30
1.2115886283959773e-14
10
23.175990953876759
20
119.09160160049106
30
1.2539343284779274e-14
10
20.206832339477863
20
121.99903748114629
30
1.2917647570341876e-14
10
18.241728299456273
20
124.89184918410531
30
1.3229956779388657e-14
10
17.286661788454641
20
127.76485476772343
30
1.3483084026103082e-14
10
17.24135962370886
20
130.55898991952168
30
1.3733455651036949e-14
10
17.930328993095085
20
133.17366709772233
30
1.4058604382054078e-14
10
19.161191806328826
20
135.50059495390937
30
1.4502962595679413e-14
10
20.779344071429293
20
137.45378641127252
30
1.5022422895287131e-14
10
22.324321498337643
20
138.68550196925813
30
1.536816324630708e-14
10
23.612009060450838
20
139.41730410247482
30
1.5511318753973337e-14
10
24.527785960543529
20
139.81996985775584
30
1.5543122344752192e-14
10
25.00000037252903
20
140
30
1.5543122344752192e-14
0
LINE
5
105
100
AcDbEntity
8
0
100
AcDbLine
10
0
20
210
30
2.4424906541753444e-14
11
0
21
192.00000077486038
31
2.2204460492503131e-14
0
LINE
5
106
100
AcDbEntity
8
0
100
AcDbLine
10
0
20
158.0000002682209
30
1.7763568394002505e-14
11
0
21
140
31
0
0
LINE
5
107
100
AcDbEntity
8
0
100
AcDbLine
10
118.00000175833702
20
140
30
4.7683715642676816e-07
11
169.99999999999997
21
140
31
0
0
SPLINE
5
108
100
AcDbEntity
8
0
100
AcDbSpline
70
1064
71
5
72
31
73
25
74
0
42
0.000000001
43
0.0000000001
44
0.0000000001
40
0
40
0
40
0
40
0
40
0
40
0
40
0.050000000000000003
40
0.10000000000000001
40
0.15000000000000002
40
0.20000000000000001
40
0.25
40
0.29999999999999999
40
0.34999999999999998
40
0.39999999999999997
40
0.44999999999999996
40
0.49999999999999994
40
0.54999999999999993
40
0.59999999999999998
40
0.65000000000000002
40
0.70000000000000007
40
0.75000000000000011
40
0.80000000000000016
40
0.8500000000000002
40
0.90000000000000024
40
0.95000000000000029
40
1
40
1
40
1
40
1
40
1
40
1
10
169.99999999999997
20
140
30
1.5543122344752192e-14
10
170.509385571601
20
139.46667300871843
30
1.5543122344752192e-14
10
171.59560906614243
20
138.45238911285571
30
1.5522985719226887e-14
10
173.42730801342134
20
137.08807279326794
30
1.5432375828927799e-14
10
176.27589541394337
20
135.58449181707562
30
1.520822842858398e-14
10
180.49671699253079
20
134.2394165247791
30
1.4852929719955572e-14
10
185.30781486424942
20
133.4412917836286
30
1.4538915541336854e-14
10
190.55722413119997
20
133.20474664664616
30
1.4369808934643451e-14
10
195.97246261944761
20
133.54462915620917
30
1.4400210928640605e-14
10
201.14146158315637
20
134.4724423134395
30
1.4610074327346705e-14
10
205.60060175369819
20
135.98650542782411
30
1.4937508441248856e-14
10
208.91180181399233
20
138.06153400166852
30
1.5304490879256616e-14
10
210.73845773727061
20
140.63885233097673
30
1.5642907225585893e-14
10
210.93875255918852
20
143.61188622825858
30
1.5924869029248363e-14
10
209.60985422550891
20
146.82294855427355
30
1.6177442091890062e-14
10
206.98018274805156
20
150.09588552668126
30
1.6448830881103078e-14
10
203.33827271509358
20
153.25943340187928
30
1.678622531432434e-14
10
198.93830056748402
20
156.17890365297848
30
1.7203901091018228e-14
10
193.95834061647091
20
158.76773960110287
30
1.7673578911405179e-14
10
188.5224498900709
20
160.97313059954564
30
1.8143064707749409e-14
10
182.70720450279441
20
162.76875376033945
30
1.8547604270890799e-14
10
177.78481729154737
20
163.87016790855944
30
1.8768641386670274e-14
10
173.94841243145993
20
164.50799170627076
30
1.8854672903905831e-14
10
171.32680512971933
20
164.84988434511843
30
1.8873791418627661e-14
10
169.99999999999997
20
165
30
1.8873791418627661e-14
0
LINE
5
109
100
AcDbEntity
8
0
100
AcDbLine
10
169.99999999999997
20
210
30
0
11
118.00000175833702
21
210
31
4.7683716530855236e-07
0
SPLINE
5
110
100
AcDbEntity
8
0
100
AcDbSpline
70
1064
71
5
72
51
73
45
74
0
42
0.000000001
43
0.0000000001
44
0.0000000001
40
0
40
0
40
0
40
0
40
0
40
0
40
0.025000000000000001
40
0.050000000000000003
40
0.075000000000000011
40
0.10000000000000001
40
0.125
40
0.14999999999999999
40
0.17499999999999999
40
0.19999999999999998
40
0.22499999999999998
40
0.24999999999999997
40
0.27499999999999997
40
0.29999999999999999
40
0.32500000000000001
40
0.35000000000000003
40
0.37500000000000006
40
0.40000000000000008
40
0.4250000000000001
40
0.45000000000000012
40
0.47500000000000014
40
0.50000000000000011
40
0.52500000000000013
40
0.55000000000000016
40
0.57500000000000018
40
0.6000000000000002
40
0.62500000000000022
40
0.65000000000000024
40
0.67500000000000027
40
0.70000000000000029
40
0.72500000000000031
40
0.75000000000000033
40
0.77500000000000036
40
0.80000000000000038
40
0.8250000000000004
40
0.85000000000000042
40
0.87500000000000044
40
0.90000000000000047
40
0.92500000000000049
40
0.95000000000000051
40
0.97500000000000053
40
1
40
1
40
1
40
1
40
1
40
1
10
0
20
210
30
2.4424906541753444e-14
10
-0.55476439924296683
20
210.5648608533985
30
2.4493249097552471e-14
10
-1.6104321602202367
20
211.71417579825129
30
2.4621159787598343e-14
10
-3.0323517696383622
20
213.49692933175291
30
2.4786706098597838e-14
10
-4.6047422069635617
20
215.99160382978363
30
2.4962611170501331e-14
10
-6.026861246302909
20
219.30277663023188
30
2.515127902723563e-14
10
-6.8961515869113157
20
222.79547383067325
30
2.5360273201197674e-14
10
-7.1964913948953644
20
226.4465347044933
30
2.563490894636382e-14
10
-6.902556390747133
20
230.21553962626223
30
2.5996285616095779e-14
10
-5.9810765708176836
20
234.04437487035491
30
2.6435449876191989e-14
10
-4.3978754520031691
20
237.86427313325197
30
2.6925871259770101e-14
10
-2.1235697812675274
20
241.60118126326435
30
2.7431758822600791e-14
10
0.86013625661214088
20
245.18145434485285
30
2.7917441412676877e-14
10
4.5543131320667944
20
248.53817088968844
30
2.8357620414629944e-14
10
8.9365257736784187
20
251.61469543458722
30
2.8742851981887101e-14
10
13.954680533184874
20
254.36187473278682
30
2.9073749262599429e-14
10
19.520594574337956
20
256.73657768917741
30
2.9357552386490416e-14
10
25.50368868610898
20
258.6997869014798
30
2.9603827337841061e-14
10
31.723947941987177
20
260.21483720707346
30
2.9820466988559684e-14
10
37.946036761595344
20
261.24584066897671
30
3.0009770225028341e-14
10
43.870093142426427
20
261.75556820299209
30
3.0163975799706277e-14
10
49.131247185394329
20
261.7050632201059
30
3.0262452078106319e-14
10
53.355546651467485
20
261.06419977305586
30
3.0279776760417718e-14
10
56.210084345336682
20
259.82120919116403
30
3.0192668317285373e-14
10
57.454720551168279
20
257.99247699309876
30
2.9987231709696637e-14
10
56.995450964719467
20
255.63291867030173
30
2.9666421471016359e-14
10
54.932325070264397
20
252.84474296580754
30
2.9256583625716969e-14
10
51.509413523761289
20
249.75689726496557
30
2.8797030893413462e-14
10
47.071375098514991
20
246.50676844813637
30
2.8330917306189169e-14
10
42.017154901480069
20
243.22014718335481
30
2.7895084761441146e-14
10
36.757416739464695
20
239.99411872524905
30
2.7511628830625137e-14
10
31.665152912074799
20
236.87307247375787
30
2.7175413237055157e-14
10
27.054535077610943
20
233.85380786695322
30
2.685882432064199e-14
10
23.175990953876656
20
230.90839839950831
30
2.6527319035812078e-14
10
20.206832339477813
20
228.00096251885353
30
2.6150894707934758e-14
10
18.241728299456273
20
225.10815081589496
30
2.5718911063701724e-14
10
17.286661788454655
20
222.23514523227635
30
2.5249688423909288e-14
10
17.241359623708874
20
219.44101008047639
30
2.4812106780125899e-14
10
17.930328993095092
20
216.82633290227517
30
2.4498408521401152e-14
10
19.161191806328826
20
214.49940504609111
30
2.4371874508448336e-14
10
20.779344071429286
20
212.54621358873118
30
2.441385407456585e-14
10
22.324321498337639
20
211.31449803074486
30
2.4478077461515663e-14
10
23.612009060450838
20
210.58269589752612
30
2.4478921353917266e-14
10
24.527785960543529
20
210.18003014224416
30
2.4448132673099068e-14
10
25.00000037252903
20
210
30
2.4424906541753444e-14
0
LINE
5
111
100
AcDbEntity
8
0
100
AcDbLine
10
0
20
158.0000002682209
30
1.7763568394002505e-14
11
0
21
140
31
1.5543122344752192e-14
0
SPLINE
5
112
100
AcDbEntity
8
0
100
AcDbSpline
70
1064
71
5
72
31
73
25
74
0
42
0.000000001
43
0.0000000001
44
0.0000000001
40
0
40
0
40
0
40
0
40
0
40
0
40
0.050000000000000003
40
0.10000000000000001
40
0.15000000000000002
40
0.20000000000000001
40
0.25
40
0.29999999999999999
40
0.34999999999999998
40
0.39999999999999997
40
0.44999999999999996
40
0.49999999999999994
40
0.54999999999999993
40
0.59999999999999998
40
0.65000000000000002
40
0.70000000000000007
40
0.75000000000000011
40
0.80000000000000016
40
0.8500000000000002
40
0.90000000000000024
40
0.95000000000000029
40
1
40
1
40
1
40
1
40
1
40
1
10
10.000000149011612
20
175.00000260770321
30
0
10
10.000000167198337
20
176.83073864326732
30
3.5588554231978004e-08
10
10.125573061657647
20
180.42103344456444
30
1.0344742401636477e-07
10
10.690684573776906
20
185.59296081294124
30
1.9528078040844671e-07
10
12.225167356508692
20
192.0645249341008
30
2.9778204884020446e-07
10
15.571566995729354
20
199.44972113738359
30
3.9296585000161745e-07
10
20.442696461041617
20
206.10911588787991
30
4.5652070074385175e-07
10
26.830640683782665
20
211.98377972043531
30
4.9133644135848828e-07
10
34.511440437338166
20
216.94739088981402
30
5.0275315605992323e-07
10
43.034639938574429
20
220.82478871430925
30
4.9864074503444901e-07
10
51.893839670208585
20
223.4575255480257
30
4.876183505783278e-07
10
60.71291637018038
20
224.82815543602362
30
4.7769518753868289e-07
10
69.311507603236834
20
225.02186509960075
30
4.74720852550623e-07
10
78.10299599147254
20
224.60516210245089
30
4.8096471872623329e-07
10
87.3673758719044
20
223.58383446024789
30
4.9317953430704434e-07
10
97.053152286871693
20
221.47859351213998
30
5.0459556599487176e-07
10
106.83744702913583
20
217.77191555423244
30
5.0673092498940415e-07
10
116.14894720638831
20
212.14133872961094
30
4.9115710396761294e-07
10
124.0221375243996
20
204.90874779471005
30
4.5143403706695991e-07
10
129.43768183120875
20
197.1355630667048
30
3.8470153817290263e-07
10
132.6493725680445
20
189.33212230277047
30
2.889832292385655e-07
10
133.95934736637747
20
183.35736588698754
30
1.8850737053713443e-07
10
134.57717062162007
20
179.09048846362805
30
9.9545429913760353e-08
10
134.87757127474541
20
176.34674071372808
30
3.41898319005496e-08
10
135.00000201165676
20
175.00000260770321
30
0
0
SPLINE
5
113
100
AcDbEntity
8
0
100
AcDbSpline
70
1064
71
5
72
31
73
25
74
0
42
0.000000001
43
0.0000000001
44
0.0000000001
40
0
40
0
40
0
40
0
40
0
40
0
40
0.050000000000000003
40
0.10000000000000001
40
0.15000000000000002
40
0.20000000000000001
40
0.25
40
0.29999999999999999
40
0.34999999999999998
40
0.39999999999999997
40
0.44999999999999996
40
0.49999999999999994
40
0.54999999999999993
40
0.59999999999999998
40
0.65000000000000002
40
0.70000000000000007
40
0.75000000000000011
40
0.80000000000000016
40
0.8500000000000002
40
0.90000000000000024
40
0.95000000000000029
40
1
40
1
40
1
40
1
40
1
40
1
10
10.000000149011612
20
175.00000260770321
30
0
10
10.000000167198337
20
173.16926708725305
30
-1.5806593955464881e-08
10
10.125573040730181
20
169.57897309494246
30
-4.3970481552195529e-08
10
10.690684458677342
20
164.40704627635273
30
-7.5868146724582796e-08
10
12.225167010590434
20
157.9354816796191
30
-9.7646342321700793e-08
10
15.571566296702716
20
150.55028354287705
30
-9.0569909504028249e-08
10
20.442695474663669
20
143.89088635911463
30
-5.0716563449812333e-08
10
26.830639585311825
20
138.01622039498201
30
1.8441017717949012e-08
10
34.511439450612244
20
133.0526079343247
30
1.1040781763984553e-07
10
43.034639221225376
20
129.17520979306911
30
2.1548227906713091e-07
10
51.893839259914799
20
126.54247346692796
30
3.2255611896928929e-07
10
60.712916197243899
20
125.17184439074569
30
4.2056060743191018e-07
10
69.311507535110493
20
124.97813524333202
30
4.9985768216538328e-07
10
78.102996000055441
20
125.39483718087109
30
5.541199921156504e-07
10
87.367376039718835
20
126.41616264575387
30
5.8055422787073725e-07
10
97.053152740561757
20
128.52140200957712
30
5.7878299350801098e-07
10
106.83744785500772
20
132.22808054821829
30
5.5048385850284795e-07
10
116.14894841235055
20
137.85866091674913
30
4.9865862083634711e-07
10
124.02213881379724
20
145.0912565724347
30
4.2741210456726611e-07
10
129.43768281684439
20
152.86444345668065
30
3.4087082710729349e-07
10
132.64937306676319
20
160.66788409742833
30
2.408954141525729e-07
10
133.95934751400517
20
166.64263957035837
30
1.5083695732262203e-07
10
134.57717063359672
20
170.90951663222563
30
7.763474913516377e-08
10
134.87757126693572
20
173.65326441577116
30
2.630048762821938e-08
10
135.00000201165676
20
175.00000260770321
30
0
0
LINE
5
114
100
AcDbEntity
8
0
100
AcDbLine
10
53.899998795241117
20
184.69999587163329
30
0
11
70.699998419731855
21
193.09999568387866
31
0
0
LINE
5
115
100
AcDbEntity
8
0
100
AcDbLine
10
70.699998419731855
20
193.09999568387866
30
0
11
87.299998048692942
21
184.69999587163329
31
0
0
LINE
5
116
100
AcDbEntity
8
0
100
AcDbLine
10
87.299998048692942
20
184.69999587163329
30
0
11
87.299998048692942
21
164.9999963119626
31
0
0
LINE
5
117
100
AcDbEntity
8
0
100
AcDbLine
10
87.299998048692942
20
164.9999963119626
30
0
11
70.699998419731855
21
156.89999649301171
31
0
0
LINE
5
118
100
AcDbEntity
8
0
100
AcDbLine
10
70.699998419731855
20
156.89999649301171
30
0
11
53.899998795241117
21
165.19999630749226
31
0
0
LINE
5
119
100
AcDbEntity
8
0
100
AcDbLine
10
53.899998795241117
20
165.19999630749226
30
0
11
53.899998795241117
21
184.69999587163329
31
0
0
LINE
5
120
100
AcDbEntity
8
0
100
AcDbLine
10
39.999999105930328
20
201.49999549612403
30
0
11
52.499998826533556
21
189.49999576434493
31
0
0
LINE
5
121
100
AcDbEntity
8
0
100
AcDbLine
10
52.499998826533556
20
189.49999576434493
30
0
11
68.299998473376036
21
196.99999559670687
31
0
0
LINE
5
122
100
AcDbEntity
8
0
100
AcDbLine
10
68.299998473376036
20
196.99999559670687
30
0
11
68.299998473376036
21
212.29999525472522
31
0
0
LINE
5
123
100
AcDbEntity
8
0
100
AcDbLine
10
72.999998368322849
20
212.29999525472522
30
0
11
72.999998368322849
21
196.99999559670687
31
0
0
LINE
5
124
100
AcDbEntity
8
0
100
AcDbLine
10
72.999998368322849
20
196.99999559670687
30
0
11
88.699998017400503
21
189.3999957665801
31
0
0
LINE
5
125
100
AcDbEntity
8
0
100
AcDbLine
10
88.699998017400503
20
189.3999957665801
30
0
11
101.59999772906303
21
202.19999548047781
31
0
0
LINE
5
126
100
AcDbEntity
8
0
100
AcDbLine
10
105.00000156462193
20
199.00000296533108
30
0
11
92.00000137090683
21
186.00000277161598
31
0
0
LINE
5
127
100
AcDbEntity
8
0
100
AcDbLine
10
92.00000137090683
20
186.00000277161598
30
0
11
92.00000137090683
21
164.00000244379044
31
0
0
LINE
5
128
100
AcDbEntity
8
0
100
AcDbLine
10
92.00000137090683
20
164.00000244379044
30
0
11
104.99999765306711
21
150.99999662488699
31
0
0
LINE
5
129
100
AcDbEntity
8
0
100
AcDbLine
10
101.59999772906303
20
147.69999669864774
30
0
11
88.799998015165329
21
160.59999641031027
31
0
0
LINE
5
130
100
AcDbEntity
8
0
100
AcDbLine
10
88.799998015165329
20
160.59999641031027
30
0
11
72.999998368322849
21
152.79999658465385
31
0
0
LINE
5
131
100
AcDbEntity
8
0
100
AcDbLine
10
72.999998368322849
20
152.79999658465385
30
0
11
72.999998368322849
21
137.4999969266355
31
0
0
LINE
5
132
100
AcDbEntity
8
0
100
AcDbLine
10
68.19999847561121
20
137.69999692216516
30
0
11
68.19999847561121
21
152.79999658465385
31
0
0
LINE
5
133
100
AcDbEntity
8
0
100
AcDbLine
10
68.19999847561121
20
152.79999658465385
30
0
11
52.499998826533556
21
160.49999641254544
31
0
0
LINE
5
134
100
AcDbEntity
8
0
100
AcDbLine
10
52.499998826533556
20
160.49999641254544
30
0
11
40.099999103695154
21
148.29999668523669
31
0
0
LINE
5
135
100
AcDbEntity
8
0
100
AcDbLine
10
36.499999184161425
20
151.49999661371112
30
0
11
48.999998904764652
21
163.99999633431435
31
0
0
LINE
5
136
100
AcDbEntity
8
0
100
AcDbLine
10
48.999998904764652
20
163.99999633431435
30
0
11
48.999998904764652
21
185.99999584257603
31
0
0
LINE
5
137
100
AcDbEntity
8
0
100
AcDbLine
10
48.999998904764652
20
185.99999584257603
30
0
11
36.500000543892384
21
198.5000029578805
31
0
0
SPLINE
5
138
100
AcDbEntity
8
0
100
AcDbSpline
70
1064
71
5
72
21
73
15
74
0
42
0.000000001
43
0.0000000001
44
0.0000000001
40
0
40
0
40
0
40
0
40
0
40
0
40
0.10000000000000001
40
0.20000000000000001
40
0.30000000000000004
40
0.40000000000000002
40
0.5
40
0.59999999999999998
40
0.69999999999999996
40
0.79999999999999993
40
0.89999999999999991
40
1
40
1
40
1
40
1
40
1
40
1
10
36.499999184161425
20
151.49999661371112
30
0
10
35.744066189946366
20
152.25593112055856
30
0
10
34.297543277324408
20
153.81478345776264
30
0
10
32.323782302121693
20
156.29400308571866
30
0
10
30.091379388630241
20
159.86716351754455
30
0
10
28.015425548997676
20
164.69781586002753
30
0
10
26.722215875392518
20
169.78350866032568
30
0
10
26.278999786914188
20
175.0000013162209
30
0
10
26.722215325797741
20
180.21649460235562
30
0
10
28.015424669416454
20
185.30218874905242
30
0
10
30.091378587113464
20
190.1328419754102
30
0
10
32.323782018132164
20
193.70600162588968
30
0
10
34.297543689529995
20
196.18521928744602
30
0
10
35.74406720989937
20
197.7440696238875
30
0
10
36.500000543892384
20
198.5000029578805
30
0
0
SPLINE
5
139
100
AcDbEntity
8
0
100
AcDbSpline
70
1064
71
5
72
21
73
15
74
0
42
0.000000001
43
0.0000000001
44
0.0000000001
40
0
40
0
40
0
40
0
40
0
40
0
40
0.10000000000000001
40
0.20000000000000001
40
0.30000000000000004
40
0.40000000000000002
40
0.5
40
0.59999999999999998
40
0.69999999999999996
40
0.79999999999999993
40
0.89999999999999991
40
1
40
1
40
1
40
1
40
1
40
1
10
68.299998473376036
20
212.29999525472522
30
0
10
67.706629043831796
20
212.26774881977775
30
0
10
66.52019432114507
20
212.18662931579701
30
0
10
64.741454474065534
20
212.01507102155713
30
0
10
62.371657086338104
20
211.68491983258303
30
0
10
59.414228491101213
20
211.09218793605129
30
0
10
56.466553903458781
20
210.30472950066908
30
0
10
53.538366866542447
20
209.30926433539301
30
0
10
50.646039447657188
20
208.10217010719671
30
0
10
47.814075772909099
20
206.69889393531545
30
0
10
45.071174091589405
20
205.12212345450368
30
0
10
42.971092110717841
20
203.73992268216665
30
0
10
41.459562557578053
20
202.64274379072594
30
0
10
40.481570853204815
20
201.88525167761458
30
0
10
39.999999105930328
20
201.49999549612403
30
0
0
SPLINE
5
140
100
AcDbEntity
8
0
100
AcDbSpline
70
1064
71
5
72
21
73
15
74
0
42
0.000000001
43
0.0000000001
44
0.0000000001
40
0
40
0
40
0
40
0
40
0
40
0
40
0.10000000000000001
40
0.20000000000000001
40
0.30000000000000004
40
0.40000000000000002
40
0.5
40
0.59999999999999998
40
0.69999999999999996
40
0.79999999999999993
40
0.89999999999999991
40
1
40
1
40
1
40
1
40
1
40
1
10
72.999998368322849
20
212.29999525472522
30
0
10
73.633498359291522
20
212.30419391629704
30
0
10
74.895108496884944
20
212.29452004272156
30
0
10
76.7713545683484
20
212.22579697697708
30
0
10
79.240142261412885
20
212.02394638992041
30
0
10
82.267635497526868
20
211.57552188265305
30
0
10
85.231475133232067
20
210.91367808887441
30
0
10
88.126568079664679
20
210.0213387806626
30
0
10
90.950320451890292
20
208.88980711972266
30
0
10
93.705776366558553
20
207.52928949188004
30
0
10
96.398181324365055
20
205.95737313508511
30
0
10
98.505849154632187
20
204.54475139060685
30
0
10
100.06224149098465
20
203.40361520952206
30
0
10
101.08918723818286
20
202.60715305636319
30
0
10
101.59999772906303
20
202.19999548047781
30
0
0
SPLINE
5
141
100
AcDbEntity
8
0
100
AcDbSpline
70
1064
71
5
72
21
73
15
74
0
42
0.000000001
43
0.0000000001
44
0.0000000001
40
0
40
0
40
0
40
0
40
0
40
0
40
0.10000000000000001
40
0.20000000000000001
40
0.30000000000000004
40
0.40000000000000002
40
0.5
40
0.59999999999999998
40
0.69999999999999996
40
0.79999999999999993
40
0.89999999999999991
40
1
40
1
40
1
40
1
40
1
40
1
10
101.59999772906303
20
147.69999669864774
30
0
10
101.08788683010486
20
147.30166888122196
30
0
10
100.05845046162933
20
146.52193345954592
30
0
10
98.49865275198303
20
145.40308916652685
30
0
10
96.38711664294982
20
144.01450017662791
30
0
10
93.69107566412778
20
142.46248697349569
30
0
10
90.933301492120009
20
141.11078533505633
30
0
10
88.108673997545921
20
139.97600903213493
30
0
10
85.214249419810812
20
139.06770996471957
30
0
10
82.252601902505972
20
138.37753556418053
30
0
10
79.228726475787354
20
137.88927798096248
30
0
10
76.763888655100288
20
137.647080664425
30
0
10
74.8911622998572
20
137.54362571667448
30
0
10
73.632142343692252
20
137.50884200227364
30
0
10
72.999998368322849
20
137.4999969266355
30
0
0
SPLINE
5
142
100
AcDbEntity
8
0
100
AcDbSpline
70
1064
71
5
72
21
73
15
74
0
42
0.000000001
43
0.0000000001
44
0.0000000001
40
0
40
0
40
0
40
0
40
0
40
0
40
0.10000000000000001
40
0.20000000000000001
40
0.30000000000000004
40
0.40000000000000002
40
0.5
40
0.59999999999999998
40
0.69999999999999996
40
0.79999999999999993
40
0.89999999999999991
40
1
40
1
40
1
40
1
40
1
40
1
10
68.19999847561121
20
137.69999692216516
30
0
10
67.60575694958986
20
137.73031054530534
30
0
10
66.4201222030905
20
137.80698846173115
30
0
10
64.650214911638457
20
137.97015684903522
30
0
10
62.307710097626369
20
138.28560637838027
30
0
10
59.410467985363937
20
138.8539823509077
30
0
10
56.546762101124635
20
139.61134048346193
30
0
10
53.71915395509545
20
140.57211530720363
30
0
10
50.928715719724664
20
141.74234869021132
30
0
10
48.173614187514524
20
143.11171020676844
30
0
10
45.451028693315969
20
144.6643049449045
30
0
10
43.296762583229139
20
146.0405105273054
30
0
10
41.69358929302981
20
147.14325243159232
30
0
10
40.630283119874875
20
147.90927197612774
30
0
10
40.099999103695154
20
148.29999668523669
30
0
0
SPLINE
5
143
100
AcDbEntity
8
0
100
AcDbSpline
70
1064
71
5
72
16
73
10
74
0
42
0.000000001
43
0.0000000001
44
0.0000000001
40
0
40
0
40
0
40
0
40
0
40
0
40
0.20000000000000001
40
0.40000000000000002
40
0.60000000000000009
40
0.80000000000000004
40
1
40
1
40
1
40
1
40
1
40
1
10
104.99999765306711
20
150.99999662488699
30
0
10
105.80443405208916
20
151.80443233465311
30
0
10
107.33275810552942
20
153.46554376363434
30
0
10
109.38380187698974
20
156.1137834454988
30
0
10
111.69060856717272
20
159.90908542572154
30
0
10
114.01695578821288
20
164.90659561125733
30
0
10
115.48338136392155
20
168.97034296092158
30
0
10
116.34330490025596
20
171.99906562373488
30
0
10
116.80047049993037
20
174.00234029496573
30
0
10
117.00000174343586
20
175.00000260770321
30
0
0
SPLINE
5
144
100
AcDbEntity
8
0
100
AcDbSpline
70
1064
71
5
72
16
73
10
74
0
42
0.000000001
43
0.0000000001
44
0.0000000001
40
0
40
0
40
0
40
0
40
0
40
0
40
0.20000000000000001
40
0.40000000000000002
40
0.60000000000000009
40
0.80000000000000004
40
1
40
1
40
1
40
1
40
1
40
1
10
105.00000156462193
20
199.00000296533108
30
0
10
105.80443948836106
20
198.19556504159195
30
0
10
107.33276594392271
20
196.53445086774283
30
0
10
109.38381137852286
20
193.88621211234695
30
0
10
111.69061707041499
20
190.09091926342433
30
0
10
114.01696038898855
20
185.09342359079497
30
0
10
115.48338288278232
20
181.02968104636705
30
0
10
116.34330512901673
20
178.0009531784454
30
0
10
116.80047047500331
20
175.99767024830558
30
0
10
117.00000174343586
20
175.00000260770321
30
0
0
SPLINE
5
145
100
AcDbEntity
8
0
100
AcDbSpline
70
1064
71
5
72
36
73
30
74
0
42
0.000000001
43
0.0000000001
44
0.0000000001
40
0
40
0
40
0
40
0
40
0
40
0
40
0.040000000000000001
40
0.080000000000000002
40
0.12
40
0.16
40
0.20000000000000001
40
0.24000000000000002
40
0.28000000000000003
40
0.32000000000000001
40
0.35999999999999999
40
0.39999999999999997
40
0.43999999999999995
40
0.47999999999999993
40
0.51999999999999991
40
0.55999999999999994
40
0.59999999999999998
40
0.64000000000000001
40
0.68000000000000005
40
0.72000000000000008
40
0.76000000000000012
40
0.80000000000000016
40
0.84000000000000019
40
0.88000000000000023
40
0.92000000000000026
40
0.9600000000000003
40
1
40
1
40
1
40
1
40
1
40
1
10
21.500000320374966
20
175.00000260770321
30
0
10
21.500000320374966
20
176.21359409071417
30
0
10
21.588503667907588
20
178.59921796207345
30
0
10
21.986767860357752
20
182.05297774642023
30
0
10
23.042549472325259
20
186.4136899966567
30
0
10
25.197508148336446
20
191.48256062531343
30
0
10
28.131776551203671
20
196.19433068898277
30
0
10
31.779489566777418
20
200.56150884474624
30
0
10
36.07152108001695
20
204.5710241540221
30
0
10
40.940788135079806
20
208.17377250045496
30
0
10
46.317330639309333
20
211.29839403601466
30
0
10
52.124268527308793
20
213.86266493263579
30
0
10
58.272734858474962
20
215.78621578854279
30
0
10
64.657823846174395
20
217.00207847055421
30
0
10
71.151455601071106
20
217.47126249007525
30
0
10
77.610520730767561
20
217.18328371508264
30
0
10
83.890008042409235
20
216.15214424821684
30
0
10
89.854774001651151
20
214.4145145721333
30
0
10
95.391260157049643
20
212.02732215056028
30
0
10
100.42135403531162
20
209.06679629625771
30
0
10
104.91028283047071
20
205.62543664930305
30
0
10
108.85308672700417
20
201.8019055364453
30
0
10
112.26487276808865
20
197.69196729636371
30
0
10
115.17056526180815
20
193.3799313738931
30
0
10
117.59407736025244
20
188.92816626347798
30
0
10
119.55209024409598
20
184.37344568862045
30
0
10
120.75515390932475
20
180.66262008098434
30
0
10
121.45579246845115
20
177.84477479313813
30
0
10
121.83349689222773
20
175.95082470525139
30
0
10
122.00000181794167
20
175.00000260770321
30
0
0
SPLINE
5
146
100
AcDbEntity
8
0
100
AcDbSpline
70
1064
71
5
72
36
73
30
74
0
42
0.000000001
43
0.0000000001
44
0.0000000001
40
0
40
0
40
0
40
0
40
0
40
0
40
0.040000000000000001
40
0.080000000000000002
40
0.12
40
0.16
40
0.20000000000000001
40
0.24000000000000002
40
0.28000000000000003
40
0.32000000000000001
40
0.35999999999999999
40
0.39999999999999997
40
0.43999999999999995
40
0.47999999999999993
40
0.51999999999999991
40
0.55999999999999994
40
0.59999999999999998
40
0.64000000000000001
40
0.68000000000000005
40
0.72000000000000008
40
0.76000000000000012
40
0.80000000000000016
40
0.84000000000000019
40
0.88000000000000023
40
0.92000000000000026
40
0.9600000000000003
40
1
40
1
40
1
40
1
40
1
40
1
10
21.500000320374966
20
175.00000260770321
30
0
10
21.559442743323682
20
173.82774720921506
30
0
10
21.749754019892524
20
171.51272048344003
30
0
10
22.249500372292587
20
168.12863215126342
30
0
10
23.345504529959719
20
163.79388324547446
30
0
10
25.435029981404988
20
158.6776602546405
30
0
10
28.242792046478989
20
153.87883637050314
30
0
10
31.757427844656775
20
149.42412652181062
30
0
10
35.951453702921704
20
145.35511203424841
30
0
10
40.77579250132176
20
141.73044376637191
30
0
10
46.161543872295063
20
138.61805492844431
30
0
10
52.020853574580343
20
136.08829400642458
30
0
10
58.247400492880182
20
134.20632271938814
30
0
10
64.717217941737971
20
133.02502218663341
30
0
10
71.287437193299453
20
132.57603585371402
30
0
10
77.805161383180803
20
132.86887684467462
30
0
10
84.119644193887382
20
133.89260308530135
30
0
10
90.093676167984569
20
135.61598073914885
30
0
10
95.614816201860009
20
137.98802437269228
30
0
10
100.60865933949205
20
140.93711014687395
30
0
10
105.04694776776154
20
144.37234826626505
30
0
10
108.93296563465371
20
148.19468498042164
30
0
10
112.29048209877588
20
152.30670130504481
30
0
10
115.15239701412453
20
156.62194023308945
30
0
10
117.54849159535712
20
161.07625196384089
30
0
10
119.49867824767027
20
165.63187879496388
30
0
10
120.71237051079812
20
169.34171822067134
30
0
10
121.43064961533472
20
172.15779602680476
30
0
10
121.82440146448411
20
174.05011170833262
30
0
10
122.00000181794167
20
175.00000260770321
30
0
0
CIRCLE
5
147
100
AcDbEntity
8
0
100
AcDbCircle
10
146.5
20
175
30
4.4408920985006262e-15
40
6.5
0
CIRCLE
5
148
100
AcDbEntity
8
0
100
AcDbCircle
10
0
20
124.9999987334013
30
0
40
2
0
CIRCLE
5
149
100
AcDbEntity
8
0
100
AcDbCircle
10
0
20
225.0000012665987
30
0
40
2
0
CIRCLE
5
150
100
AcDbEntity
8
0
100
AcDbCircle
10
185.00000275671482
20
200.00000089406967
30
0
40
2
0
CIRCLE
5
151
100
AcDbEntity
8
0
100
AcDbCircle
10
185.00000275671482
20
149.99999910593033
30
0
40
2
0
ENDSEC
0
SECTION
2
OBJECTS
0
DICTIONARY
5
C
100
AcDbDictionary
3
ACAD_GROUP
350
D
3
ACAD_MLINESTYLE
350
17
0
DICTIONARY
5
D
100
AcDbDictionary
0
DICTIONARY
5
1A
330
C
100
AcDbDictionary
0
DICTIONARY
5
17
100
AcDbDictionary
0
ENDSEC
0
EOF
